<svg width="32" height="39" viewBox="0 0 32 39" fill="none" xmlns="http://www.w3.org/2000/svg">
<rect width="32" height="32" rx="16" fill="#9ED9DD"/>
<g clip-path="url(#clip0_2565_1535)">
<path fill-rule="evenodd" clip-rule="evenodd" d="M16.8975 3C17.9958 3 18.8827 3.8869 18.8827 4.97102C18.8827 6.05513 17.9958 6.95618 16.8975 6.95618C15.7993 6.95618 14.9124 6.06927 14.9124 4.97102C14.9124 3.87276 15.7994 3 16.8975 3Z" fill="#E37F70"/>
<path fill-rule="evenodd" clip-rule="evenodd" d="M11.3645 5.73132H22.4447C24.838 5.73132 26.8092 7.68831 26.8092 10.0958V29.0744C26.8092 31.4819 24.8382 33.4389 22.4447 33.4389H11.3645C8.95699 33.4389 7 31.4819 7 29.0744V10.0957C7 7.68831 8.95699 5.73132 11.3645 5.73132Z" fill="#E37F70"/>
<path fill-rule="evenodd" clip-rule="evenodd" d="M11.3645 7.13924H22.4447C24.0779 7.13924 25.4013 8.46264 25.4013 10.0957V29.0743C25.4013 30.7075 24.0779 32.0449 22.4447 32.0449H11.3645C9.7312 32.0449 8.39378 30.7075 8.39378 29.0743V10.0957C8.39378 8.46252 9.7312 7.13924 11.3645 7.13924Z" fill="#DFC29D"/>
<path fill-rule="evenodd" clip-rule="evenodd" d="M13.5045 7.13924H22.4448C24.078 7.13924 25.4014 8.46264 25.4014 10.0957V29.0743C25.4014 29.5812 25.2746 30.0457 25.0634 30.4681H15.1659C14.2507 30.4681 13.5045 29.7219 13.5045 28.8067V7.13924Z" fill="#F3D6B1"/>
<path fill-rule="evenodd" clip-rule="evenodd" d="M25.4013 15.5725V29.0743C25.4013 30.7075 24.0779 32.0449 22.4447 32.0449H11.3645C9.7312 32.0449 8.39378 30.7075 8.39378 29.0743V15.5725H25.4013Z" fill="#C62F18"/>
<path fill-rule="evenodd" clip-rule="evenodd" d="M25.4013 15.5725V29.0743C25.4013 29.5812 25.2745 30.0457 25.0633 30.4681H15.1658C14.2506 30.4681 13.5044 29.7219 13.5044 28.8067V15.5725H25.4013Z" fill="#D53119"/>
<path fill-rule="evenodd" clip-rule="evenodd" d="M12.7866 32.6081H16.0951V36.2123H12.7866V32.6081ZM17.7142 32.6081H21.0086V37.7329H17.7142V32.6081Z" fill="#E37F70"/>
<path d="M20.1075 31.4818H18.6152V37.7329H20.1075V31.4818Z" fill="#A23E2F"/>
<path fill-rule="evenodd" clip-rule="evenodd" d="M17.6015 39H21.1213C21.4591 39 21.7549 38.7184 21.7549 38.3664C21.7549 38.0286 21.4591 37.7329 21.1213 37.7329H17.6015C17.2636 37.7329 16.9679 38.0286 16.9679 38.3664C16.9679 38.7184 17.2636 39 17.6015 39Z" fill="#EFE7C4"/>
<path fill-rule="evenodd" clip-rule="evenodd" d="M16.8975 4.15448C17.3622 4.15448 17.7282 4.52049 17.7282 4.97101C17.7282 5.42154 17.3622 5.80169 16.8975 5.80169C16.4328 5.80169 16.081 5.43568 16.081 4.97101C16.081 4.50634 16.447 4.15448 16.8975 4.15448Z" fill="#BC5849"/>
</g>
<defs>
<clipPath id="clip0_2565_1535">
<rect width="19.8092" height="36" fill="white" transform="translate(7 3)"/>
</clipPath>
</defs>
</svg>
