<?xml version="1.0" encoding="UTF-8"?>
<svg id="Layer_1" xmlns="http://www.w3.org/2000/svg" xmlns:xlink="http://www.w3.org/1999/xlink" version="1.1" viewBox="0 0 36 36">
  <!-- Generator: Adobe Illustrator 29.2.1, SVG Export Plug-In . SVG Version: 2.1.0 Build 116)  -->
  <defs>
    <style>
      .st0 {
        fill: none;
      }

      .st1 {
        fill: #6c0400;
      }

      .st2 {
        fill: #fee394;
      }

      .st3 {
        fill: #be8668;
      }

      .st3, .st4, .st5 {
        fill-rule: evenodd;
      }

      .st4 {
        fill: #a77052;
      }

      .st5 {
        fill: #e7e7e7;
      }

      .st6 {
        clip-path: url(#clippath);
      }
    </style>
    <clipPath id="clippath">
      <rect class="st0" x="4.8" y="-2" width="25.4" height="40" transform="translate(-6.8 24.2) rotate(-60)"/>
    </clipPath>
  </defs>
  <path class="st2" d="M17.8,2h0c8.8,0,16,7.2,16,16h0c0,8.8-7.2,16-16,16h0c-8.8,0-16-7.2-16-16h0C1.8,9.2,9,2,17.8,2Z"/>
  <g class="st6">
    <g>
      <path class="st3" d="M6.6,5.1c-.3.6-.1,1.4.5,1.7l7.5,4.3-.3.5L5.6,6.8c-.6-.3-1.4-.2-1.7.5-.3.6-.1,1.4.5,1.7l8.6,5-.3.5L2.8,8.7c-.6-.3-1.4-.1-1.7.5-.3.6-.1,1.4.5,1.7l9.9,5.7-.3.5-7.5-4.3c-.6-.4-1.4-.2-1.7.5-.3.6-.1,1.4.5,1.7l14.5,8.4c.9.5,1.9.3,2.6-.4l11.1,6.4,4.3-7.5-11.1-6.4c.1-.4.1-.9,0-1.4l-4.1-9.6-1.1.4c-1,.4-1.5,1.6-1,2.6l1.4,3.3-10.6-6.1c-.6-.4-1.4-.2-1.7.5Z"/>
      <path class="st4" d="M27,27.3l2.5,1.4c.1-.1.2-.2.1-.1,0,.2.2-.8.2-.8l.3-1.6v-.9c-.1,0-.6-1.1-.6-1.1l-.9-1-.8-.5-1.9-1.3.2.6s2.7,3.4.9,5.2Z"/>
      <path class="st1" d="M18.8,33.4l-1.1-.7c-.7-.4-1.2-1.1-1.4-1.8-.2-.7-.1-1.6.3-2.3.4-.7,1.1-1.2,1.8-1.4.7-.2,1.6-.1,2.3.3l3.6,2.1c.9.5,1.9.6,2.8.4.9-.2,1.7-.8,2.2-1.7.5-.9.6-1.8.4-2.7-.2-.9-.8-1.7-1.7-2.2l-5.2-3,.4-.7,5.2,3c1.1.6,1.8,1.6,2.1,2.7.3,1.1.2,2.3-.4,3.3-.6,1.1-1.6,1.8-2.7,2.1-1.1.3-2.3.2-3.4-.4l-3.6-2.1c-.5-.3-1.1-.4-1.7-.2-.6.2-1,.5-1.3,1-.3.5-.4,1.1-.2,1.7.1.6.5,1,1,1.3l1.1.7-.4.7Z"/>
      <path class="st5" d="M24.2,18.4l-2,3.5c-.1.2-.4.3-.6.1l-.8-.5c-.2-.1-.3-.4-.2-.6l2-3.5c.1-.2.4-.3.6-.2l.8.5c.2.1.3.4.2.6Z"/>
      <path class="st5" d="M27.7,22.5c-.4.7-1.3,1-2,.5-.7-.4-1-1.3-.6-2s1.3-1,2.1-.6c.7.4,1,1.3.5,2.1Z"/>
      <path class="st4" d="M18.9,10.8s-4.9,4.3.7,7.8c0,0-3.3-1.5-5.3.9,0,0,.4-1.8,2.9-2.1-1.6-1.4-1.3-5,1.7-6.5Z"/>
    </g>
  </g>
  <metadata>
    <sfw xmlns="http://ns.adobe.com/SaveForWeb/1.0/">
      <slices/>
      <sliceSourceBounds x="-6.13" y="-3" width="47.35" height="42.02" bottomLeftOrigin="true"/>
    </sfw>
  </metadata>
</svg>