<?xml version="1.0" encoding="UTF-8"?>
<svg id="Layer_1" xmlns="http://www.w3.org/2000/svg" xmlns:xlink="http://www.w3.org/1999/xlink" version="1.1" viewBox="0 0 36 36">
  <!-- Generator: Adobe Illustrator 29.2.1, SVG Export Plug-In . SVG Version: 2.1.0 Build 116)  -->
  <defs>
    <style>
      .st0 {
        fill: none;
      }

      .st1 {
        fill: #9e0300;
      }

      .st1, .st2, .st3, .st4, .st5, .st6, .st7 {
        fill-rule: evenodd;
      }

      .st8 {
        fill: #fee394;
      }

      .st2 {
        fill: #db0700;
      }

      .st3 {
        fill: #ff4f37;
      }

      .st4 {
        fill: #0066a9;
      }

      .st5 {
        fill: #004d90;
      }

      .st6 {
        fill: #f52308;
      }

      .st7 {
        fill: #b80500;
      }

      .st9 {
        clip-path: url(#clippath);
      }
    </style>
    <clipPath id="clippath">
      <rect class="st0" x="8.9" y=".9" width="17.4" height="34"/>
    </clipPath>
  </defs>
  <path class="st8" d="M17.9,1.9h0c8.8,0,16,7.2,16,16h0c0,8.8-7.2,16-16,16h0c-8.8,0-16-7.2-16-16h0C1.9,9.1,9.1,1.9,17.9,1.9Z"/>
  <g class="st9">
    <g>
      <path class="st7" d="M12.2,9.3c-.5-1.9-1-3.8-.3-6.3.1-.5,1.3-.3,1.3,0,.2,2.5,1.2,4.3,2.2,6.2-1.1,0-2.2,0-3.2.1Z"/>
      <path class="st1" d="M12.2,9.3c-.5-1.9-1-3.8-.3-6.3,0,0-.6,4.5,2.6,5.5.9.3.8.5,0,.7h-2.3c0,0,0,0,0,0Z"/>
      <path class="st7" d="M14.4,7.2c-4.1-.2-4.7,3.5-4.1,6.6,1.8-1.3,3.6-2.7,5.4-4-.5-.9-.9-1.8-1.4-2.6Z"/>
      <path class="st2" d="M19.2,7.2c5.3,1.5,5.5,5.5,2.4,9.3-1.2-.2-2.4-.4-3.6-.6-.1-2.6-.3-5.2-.4-7.8.5-.3,1.1-.6,1.6-.8h0Z"/>
      <path class="st7" d="M17.9,13.4l-.3-5.4h.1c0,0,1.7,0,1.7,0,0,0,2,2-.2,5.1-.6.9-1.1.9-1.3.3h0Z"/>
      <path class="st4" d="M18.1,10.2c.2-2.5-.1-6.3,1.2-8.5-.1-.4-1.1-1-1.7-.7-2.7,2.6-3.5,6.4-3.9,9.4,1-.4,3.4.2,4.3-.2Z"/>
      <path class="st5" d="M19.3,1.7c-.1-.4-1.1-1-1.7-.7-2.3,2.2-3.3,5.3-3.7,8l2.2.8c-.7-3-.3-5.8,1.8-8.3.2-.2.7,0,1.4.2h0Z"/>
      <path class="st6" d="M12.5,10.6c-2.2,1.3-3.4,3.5-3.6,6.6-.1,7.6,2.8,12.8,7.3,16.7,2,1.7,3.3,1.1,4.9-.7,4.7-5.1,8.2-15.6,1.2-18.8-6.4-2.9-2.4-7.6,2.2-10.2,0-.6-.2-1.2-.9-1.5-5.3,1.6-9.2,4.1-11.1,7.9h0Z"/>
      <path class="st2" d="M12.5,10.6c-2.2,1.3-3.4,3.5-3.6,6.6,0,5.9,1.7,10.4,4.6,13.9-2.5-4.1-5.7-15.5-1.3-17.6,1.3-.6,2.5,1.4,3.3,2.2-1.9-5.2-2.6-5.2,1.4-9.9-1.9,1.3-3.4,2.9-4.4,4.8h0Z"/>
      <path class="st3" d="M23.4,16.9c2.7,3.7.8,9.5-1.3,12.8,1-4.9.8-7.7-.6-10.6-1.4-2.8.8-3.7,1.9-2.2h0Z"/>
    </g>
  </g>
  <metadata>
    <sfw xmlns="http://ns.adobe.com/SaveForWeb/1.0/">
      <slices/>
      <sliceSourceBounds x="1.9" y="1.09" width="32" height="34" bottomLeftOrigin="true"/>
    </sfw>
  </metadata>
</svg>