<?xml version="1.0" encoding="UTF-8"?>
<svg id="Layer_1" xmlns="http://www.w3.org/2000/svg" version="1.1" viewBox="0 0 36 36">
  <!-- Generator: Adobe Illustrator 29.2.1, SVG Export Plug-In . SVG Version: 2.1.0 Build 116)  -->
  <defs>
    <style>
      .st0 {
        fill: #aedfe3;
      }

      .st1, .st2 {
        fill: #ffc8b1;
      }

      .st1, .st3, .st4, .st5 {
        fill-rule: evenodd;
      }

      .st6 {
        fill: #a05843;
      }

      .st3 {
        fill: #ffa87d;
      }

      .st4 {
        fill: #db8b63;
      }

      .st5 {
        fill: #ec9c74;
      }
    </style>
  </defs>
  <path class="st0" d="M17.9,2.2h0c8.8,0,16,7.2,16,16h0c0,8.8-7.2,16-16,16h0c-8.8,0-16-7.2-16-16h0C1.9,9.3,9.1,2.2,17.9,2.2Z"/>
  <path class="st5" d="M9.8,22.4c2.2,3.2,4.9,2.9,7.9,0,1.2,0,2.5,0,3.8,0,1.5-.5,2.9-1,4.4-1.5,1-.9,2-1.7,2.9-2.6v-5.5c.3-1.4.6-2.7.9-4.1-.4-.8-.9-1.6-1.4-2.4-1.3.2-2.6.3-3.9.5-1.6.4-3.3.7-4.9,1.1-1.8-.3-3.6-.6-5.4-.9-1.5,0-3.1,0-4.6,0-.6,0-1.3,0-1.9,0-.4,1-.7,2.1-1.1,3.1.2,1.4.4,2.7.6,4.1.3,1.2.5,2.4.8,3.6.7,1.6,1.4,3.2,2.1,4.8h0Z"/>
  <path class="st4" d="M9.8,22.4c.6.9,1.2,1.5,1.9,1.9,1-1.6.6-3.5-.5-5,.6-1.1.4-2.1-.4-2.9.2-.4.3-.9.2-1.3-.1-.5-.4-.8-.7-1.2.2-.3.3-.6.4-1,0-.9-.4-1.7-1-2.3,0,0,0-.1,0-.2.7.4,1.5.3,2.3.2,1,1,2.3,1.1,3.6.5,1.6,1.3,3.2,1.1,4.8,0,.5.3,1.2.5,1.8.3.7-.2,1.2-.6,1.6-1.1.6.1,1.1.1,1.7,0,.1,0,.3-.1.4-.2,0,0,0,0,.1.1-.3.8-.1,1.6.3,2.3-.3.7-.2,1.3.1,1.9-.7.7-1,1.6-.9,2.6-.5.2-.9.7-1.1,1.2-.9,0-1.7.4-2.3,1.2-.8,0-1.5.4-2,1-1,0-2.1,0-2.9.6-.8.5-1.1,1.4-1.3,2.3-.4.3-.7.7-.8,1.1.8-.4,1.6-1,2.5-1.9,1.2,0,2.5,0,3.8,0,1.5-.5,2.9-1,4.4-1.5,1-.9,2-1.7,2.9-2.6v-5.5c.3-1.4.6-2.7.9-4.1-.4-.8-.9-1.6-1.4-2.4-1.3.2-2.6.3-3.9.5-1.6.4-3.3.7-4.9,1.1-1.8-.3-3.6-.6-5.4-.9-1.5,0-3.1,0-4.6,0-.6,0-1.3,0-1.9,0-.4,1-.7,2.1-1.1,3.1.2,1.4.4,2.7.6,4.1.3,1.2.5,2.4.8,3.6.7,1.6,1.4,3.2,2.1,4.8h0Z"/>
  <path class="st6" d="M9.7,10.3c-.1,0-.1-.2,0-.3,0-.1.2-.1.3,0,0,0,2.1,1.1,1.5,4.2,1,1.1,1.7.7,2.5.1,1.2-1.4.8-2.3.8-2.3,0-.1,0-.2.1-.3.1,0,.2,0,.3.1,0,0,.4.7-.2,1.8.8-.4,1.8-.5,3,.7.6-.1.7-1,.7-1,0-.1.1-.2.2-.2.1,0,.2.1.2.2,0,0,0,1-.8,1.3,0,0,0,0,0,0,0,0,0,0,0,0,.3.4.7.8,1,1.1,0-.6.3-1.1.6-1.5.4-.7.9-1.3-.3-2.5,0,0,0-.2,0-.3,0,0,.2,0,.3,0,1.4,1.4.9,2.2.4,3-.3.5-.6,1-.5,1.6,0,0,0,0,.1,0,.6.2,1.4.2,2.4-.5.7-.5,1.4-.9,2.1-1,.7,0,1.4.1,1.9.8,0,0,0,.2,0,.3,0,0-.2,0-.3,0-.5-.6-1-.7-1.6-.7-.6,0-1.2.4-1.9.9h0c-1.2.8-2.1.8-2.8.5-.7-.3-1.3-.9-1.8-1.6-1.8-2-2.8-1.2-3.8-.5-1,.7-1.9,1.3-3.2-.2-.5-.1-.7.2-.7.2,0,.1-.2.1-.3,0-.1,0-.1-.2,0-.3,0,0,.3-.5,1-.4.5-2.7-1.3-3.6-1.3-3.6h0ZM11.2,17.4c0,0-.2,0-.3,0,0,0,0-.2,0-.3.3-.2.6-.4.9-.5.3,0,.7,0,1,.3.4.3.8.3,1.1.2.4-.1.7-.4,1.1-.7.3-.3,1.1-.6,1.9-.6.3,0,.7,0,1,.2.3.2.5.4.7.7,0,.2.1.5,0,.8.6-.2,1.9-.4,2.6.5.3-.3,1.1-.9,2-.8.6,0,.7-1.1.7-1.1,0-.1.1-.2.2-.2.1,0,.2.1.2.2,0,0,0,.8-.5,1.3,0,0,0,0,0,0,.1,0,.2.2.1.3,0,.1-.2.2-.3.1-1.1-.5-2,.3-2.3.5,0,.2.2.4.2.6,0,.1,0,.2-.2.3-.1,0-.2,0-.3-.2-.4-1.8-2.3-1.3-2.7-1.1,0,.2-.1.3-.2.5,0,.1-.2.2-.3.1-.1,0-.2-.2-.1-.3,0-.2.1-.4.2-.6,0,0,0,0,0,0,0-.4,0-.7,0-.9,0-.2-.3-.4-.5-.5-.2-.1-.5-.2-.8-.2-.6,0-1.3.2-1.6.4-.4.4-.8.7-1.3.8-.5.1-1,0-1.5-.3,0,0,0,0,0,0-.2-.2-.4-.2-.7-.2-.2,0-.5.2-.7.4h0ZM11.4,9.9c-.1,0-.2-.2-.1-.3,0-.1.2-.2.3-.1,0,0,2.4.8,1.4,3.2,0,.1-.2.2-.3.1-.1,0-.2-.2-.1-.3.9-2-1.1-2.6-1.1-2.6h0ZM17,10.7c0,0,.2-.1.3,0,0,0,.1.2,0,.3,0,0-.4.5.6,1.7,0,0,0,.2,0,.3,0,0-.2,0-.3,0-1.3-1.5-.7-2.3-.7-2.3h0ZM21.7,10.5c0,0-.1-.2,0-.3,0-.1.2-.1.3,0,0,0,.2.2.5.5.3-.4,1.2-1,3.1-.2.1,0,.2.2.1.3,0,.1-.2.2-.3.1-1.8-.8-2.5-.1-2.6.1.4.6.6,1.4.3,2.6.2.2,1,.5,2.3.1.1,0,.2,0,.3.2,0,.1,0,.2-.2.3-1.4.4-2.2,0-2.6-.1-.1.3-.3.6-.5.9,0,.1-.2.1-.3,0-.1,0-.1-.2,0-.3,1.1-1.7.8-2.9.3-3.6,0,0,0,0,0,0-.3-.4-.5-.6-.5-.6h0ZM24,11.9c0,0,0-.2,0-.3,0,0,.2,0,.3,0,0,0,1.4,1.6,3.1.5.1,0,.2,0,.3,0,0,.1,0,.2,0,.3-2.1,1.4-3.7-.6-3.7-.6ZM11.7,18.5c0,0,0-.2,0-.3.1,0,.2,0,.3,0,0,0,.9,1.3,2.8.7-.2-.8,1.2-1.5,1.2-1.5.1,0,.2,0,.3.1,0,.1,0,.2-.1.3,0,0-1,.5-1,1,.6-.2,1-.2,1.4-.1.3,0,.5.3.8.5.2.2.3.5.5.7.3.6.3,1.3.1,1.8,0,.1-.2.2-.3.1-.1,0-.2-.2-.1-.3.1-.4,0-1-.1-1.5,0-.2-.2-.4-.4-.6-.2-.2-.3-.3-.6-.4-.3,0-.7,0-1.2.1,0,0,0,0-.1,0,0,0,0,0,0,0-2.3.9-3.5-.8-3.5-.8h0ZM11.1,21.5c-.1,0-.1-.2,0-.3,0-.1.2-.1.3,0,0,0,2.9,1.9,4.1,0,0,0,.2-.1.3,0,.1,0,.1.2,0,.3-1.5,2.2-4.7,0-4.7,0ZM19.3,19.1c0-.1.2-.2.3-.1.1,0,.2.2.1.3,0,0-.4,1.4.4,1.8.1,0,.1.2,0,.3,0,.1-.2.2-.3,0-1.2-.6-.6-2.4-.6-2.4h0Z"/>
  <path class="st3" d="M6.4,21c-1.2-1.1-1.3-2.1-.5-3.2-1.5-1.2-1.4-2.5-.1-3.7-1.8-1.1-1.2-2-.6-3-1-1.3-.7-2.3.2-3-.8-2.1,0-3,2.1-3.2,1.4-1,2.6-.7,3.8.3,1.1-1.1,2.1-.7,3,0,1.1-.6,1.8-.5,2.5,0,.9-.5,1.8-.4,2.6-.1.8-.7,1.7-.6,2.8-.3.9-.9,1.7-.6,2.5-.1,1-1.2,2.1-1.4,3.3-.3,1.5-1,4.3.4,2.6,2.4.5,1.1.5,2-.1,2.8.7.9.3,1.6-.3,2.3.8,1.3.4,2.2-.5,2.9,1.2.9,1,2,0,3.1.6,2.3-.3,3.3-1.8,3.7-.4,1.7-1.4,2.6-3.2,2.1-1.1,1.2-2.3,1.9-3.6.5-.3.7-.8,1.1-1.4,1,.7.8.5,1.5,0,2.2,1.4,1.5,1,2.7-.5,3.7-.2.6-.3,1.1-.5,1.7-.3-.6-.7-1.1-1-1.7-1.5-.1-2-1.1-1.9-2.5-.1-1-.2-2,.7-2.3-.9-1.2-.7-1.9.3-2.4.1-2.4,1.8-2.6,3.7-2.4.5-.8,1.1-1.3,2-1,.7-1.2,1.5-1.5,2.5-1.1.2-1,.6-1.6,1.5-1.5-.4-1.6,0-2.6,1.1-3.1-.6-.7-.9-1.4-.3-2.2-.6-.9-.8-1.8,0-2.6-.8-.3-1.3-.8-.6-1.7-.9.8-1.8,1.7-3.3,1-.9,1-1.7,2.1-3.2.7-1.6,1.4-3.1,1.8-4.6.1-1.5,1-2.6.8-3.4-.4-1.9.6-2.6.2-2.6-1-.4.6-.9.7-1.7.3.8.7,1.1,1.3.3,2,1.3,1.2,1.9,2.4.2,3.3,1.4.6,1.9,1.4.9,2.6,1,.6,1.6,1.4.6,2.8,4.8,5.5-5.9,9.4-3.7,1.7h0Z"/>
  <path class="st2" d="M17.1,23.9c-.1.1-.3.1-.4,0-.1-.1-.1-.3,0-.4.6-.6,1.2-1,1.9-1.2.7-.2,1.3-.3,2.1-.2.3-.5.7-.7,1-.8.4,0,.7,0,1.1.1.3-.5.6-.8,1-1,.4-.2.8-.2,1.2-.1.3-.6.7-1.1,1.1-1.5.4-.4.9-.6,1.5-.7-.1-.7,0-1.3.1-1.8.2-.6.5-1.1.9-1.6.1-.1.3-.2.4,0,.1.1.2.3,0,.4-.3.4-.6.8-.8,1.4-.2.5-.2,1.1,0,1.8h0c0,.2,0,.3-.2.4-.6.1-1.1.3-1.5.7-.4.4-.8.8-1,1.5,0,.2-.2.2-.4.2-.4-.1-.8-.1-1,0-.3.2-.6.5-.8,1h0c0,.2-.3.2-.4.1-.4-.2-.7-.3-1-.2-.3,0-.5.3-.8.7,0,.1-.2.2-.3.2-.7,0-1.4,0-2,.2-.6.2-1.2.6-1.7,1.1h0Z"/>
  <path class="st2" d="M9.3,27.5c0,.2-.2.2-.4.2-.2,0-.2-.2-.2-.4.5-1.3.8-2.5.7-3.6-.1-1.1-.6-2-1.7-2.8-.1,0-.2-.3,0-.4.4-.6.6-1.2.6-1.6,0-.4-.2-.7-.6-1-.1,0-.2-.3-.1-.4.4-.7.5-1.2.4-1.8-.1-.5-.5-1-1.1-1.4-.1-.1-.2-.3,0-.4,0,0,0,0,0,0,.3-.4.5-.7.5-1,0-.3-.1-.6-.4-.9-.1-.1-.1-.3,0-.4.7-.4,1.2-1.7,1.2-2.7.3.5.2,1.1,0,1.7-.2.4-.4.9-.7,1.2.3.4.4.8.4,1.2,0,.4-.2.8-.4,1.2.6.5,1,1,1.1,1.6.1.6,0,1.2-.3,1.9.5.3.7.8.7,1.3,0,.5-.2,1.1-.6,1.7,1.1.9,1.6,1.9,1.7,3.1.1,1.2-.2,2.5-.7,3.9h0Z"/>
  <path class="st2" d="M7.5,5.3c-.2,0-.3-.2-.2-.4,0-.2.2-.3.4-.2.6.1,1.1.3,1.6.6.4.2.8.5,1.1.9.6,0,1.2,0,1.8,0,.6,0,1.1.3,1.4.7.5-.1.9-.2,1.4-.2.5,0,1,0,1.6.3.5-.3,1-.5,1.6-.6.5,0,1.1,0,1.6.4.5-.4,1-.6,1.6-.6.6,0,1.1.2,1.7.4.2-.2.5-.4.8-.5.3-.1.7-.2,1.1,0,.3-.4.7-.7,1.3-.8.5,0,1.1,0,1.8.2.2-.4.6-.7,1-.8.5-.2,1-.3,1.6-.4.2,0,.3.1.3.3,0,.2-.1.3-.3.3-.5,0-1,.1-1.4.3-.4.2-.6.4-.8.8,0,.1-.2.2-.4.2-.7-.3-1.3-.4-1.8-.3-.4,0-.8.3-1,.7,0,.1-.2.2-.4.1-.4-.1-.7-.1-.9,0-.3.1-.5.3-.7.6,0,0-.2.1-.3,0-.6-.3-1.2-.5-1.7-.5-.5,0-.9.2-1.4.6h0c-.1.1-.3.1-.4,0-.5-.3-1-.5-1.4-.4-.5,0-1,.2-1.4.5,0,0-.2,0-.3,0-.5-.2-1-.3-1.5-.3-.5,0-.9.1-1.4.2-.1,0-.3,0-.3,0-.3-.3-.7-.5-1.2-.6-.5,0-1.2,0-1.8,0-.1,0-.2,0-.3-.1-.3-.3-.6-.6-1-.9-.4-.2-.9-.4-1.4-.5h0Z"/>
  <path class="st1" d="M26.9,8c.5.6,1.2,1,1.9,1.4-.4.8-.3,1.5,0,2.3-.4.9-.2,2.2.3,3,.1.2-.5,0-.5.3-.4-.9-.7-2-.3-3.1-.6-.7-.5-1.5-.2-2.3-.7-.4-1.2-.8-1.4-1.6h0Z"/>
  <metadata>
    <sfw xmlns="http://ns.adobe.com/SaveForWeb/1.0/">
      <slices/>
      <sliceSourceBounds x="1.9" y="1.84" width="32" height="32" bottomLeftOrigin="true"/>
    </sfw>
  </metadata>
</svg>