<?xml version="1.0" encoding="UTF-8"?>
<svg id="Layer_1" xmlns="http://www.w3.org/2000/svg" xmlns:xlink="http://www.w3.org/1999/xlink" version="1.1" viewBox="0 0 36 36">
  <!-- Generator: Adobe Illustrator 29.2.1, SVG Export Plug-In . SVG Version: 2.1.0 Build 116)  -->
  <defs>
    <style>
      .st0 {
        fill: none;
      }

      .st1 {
        fill: #c62f18;
      }

      .st1, .st2, .st3, .st4, .st5, .st6, .st7 {
        fill-rule: evenodd;
      }

      .st2 {
        fill: #efe7c4;
      }

      .st3 {
        fill: #bc5849;
      }

      .st8 {
        fill: #a23e2f;
      }

      .st4 {
        fill: #d53119;
      }

      .st5 {
        fill: #e37f70;
      }

      .st6 {
        fill: #dfc29d;
      }

      .st7 {
        fill: #f3d6b1;
      }

      .st9 {
        fill: #9ed9dd;
      }

      .st10 {
        clip-path: url(#clippath);
      }
    </style>
    <clipPath id="clippath">
      <rect class="st0" x="8.7" y="1.7" width="18.9" height="34.3"/>
    </clipPath>
  </defs>
  <path class="st9" d="M17.9,2h0c8.8,0,16,7.2,16,16h0c0,8.8-7.2,16-16,16h0c-8.8,0-16-7.2-16-16h0C1.9,9.1,9.1,2,17.9,2Z"/>
  <g class="st10">
    <g>
      <path class="st5" d="M18.1,1.7c1,0,1.9.8,1.9,1.9s-.8,1.9-1.9,1.9-1.9-.8-1.9-1.9.8-1.9,1.9-1.9Z"/>
      <path class="st5" d="M12.8,4.3h10.6c2.3,0,4.2,1.9,4.2,4.2v18.1c0,2.3-1.9,4.2-4.2,4.2h-10.6c-2.3,0-4.2-1.9-4.2-4.2V8.5c0-2.3,1.9-4.2,4.2-4.2Z"/>
      <path class="st6" d="M12.8,5.6h10.6c1.6,0,2.8,1.3,2.8,2.8v18.1c0,1.6-1.3,2.8-2.8,2.8h-10.6c-1.6,0-2.8-1.3-2.8-2.8V8.5c0-1.6,1.3-2.8,2.8-2.8Z"/>
      <path class="st7" d="M14.9,5.6h8.5c1.6,0,2.8,1.3,2.8,2.8v18.1c0,.5-.1.9-.3,1.3h-9.4c-.9,0-1.6-.7-1.6-1.6V5.6Z"/>
      <path class="st1" d="M26.2,13.7v12.9c0,1.6-1.3,2.8-2.8,2.8h-10.6c-1.6,0-2.8-1.3-2.8-2.8v-12.9h16.2Z"/>
      <path class="st4" d="M26.2,13.7v12.9c0,.5-.1.9-.3,1.3h-9.4c-.9,0-1.6-.7-1.6-1.6v-12.6h11.3Z"/>
      <path class="st5" d="M14.2,29.9h3.2v3.4h-3.2v-3.4ZM18.9,29.9h3.1v4.9h-3.1v-4.9Z"/>
      <path class="st8" d="M21.2,28.8h-1.4v6h1.4v-6Z"/>
      <path class="st2" d="M18.8,36h3.4c.3,0,.6-.3.6-.6s-.3-.6-.6-.6h-3.4c-.3,0-.6.3-.6.6s.3.6.6.6Z"/>
      <path class="st3" d="M18.1,2.8c.4,0,.8.3.8.8s-.3.8-.8.8-.8-.3-.8-.8.3-.8.8-.8Z"/>
    </g>
  </g>
  <metadata>
    <sfw xmlns="http://ns.adobe.com/SaveForWeb/1.0/">
      <slices/>
      <sliceSourceBounds x="1.9" y="0.01" width="32" height="34.3" bottomLeftOrigin="true"/>
    </sfw>
  </metadata>
</svg>