<?xml version="1.0" encoding="UTF-8"?>
<svg id="Layer_1" xmlns="http://www.w3.org/2000/svg" xmlns:xlink="http://www.w3.org/1999/xlink" version="1.1" viewBox="0 0 36 36">
  <!-- Generator: Adobe Illustrator 29.2.1, SVG Export Plug-In . SVG Version: 2.1.0 Build 116)  -->
  <defs>
    <style>
      .st0 {
        fill: none;
      }

      .st1 {
        fill: #daacc9;
      }

      .st2 {
        fill: #ffaf00;
      }

      .st2, .st3, .st4, .st5 {
        fill-rule: evenodd;
      }

      .st3 {
        fill: #ffc632;
      }

      .st4 {
        fill: #f0b633;
      }

      .st5 {
        fill: #ffdc6b;
      }

      .st6 {
        fill: #ffc281;
      }

      .st7 {
        fill: #ffce8d;
      }

      .st8 {
        clip-path: url(#clippath);
      }
    </style>
    <clipPath id="clippath">
      <rect class="st0" x="2.1" y="5.1" width="32" height="26.3"/>
    </clipPath>
  </defs>
  <path class="st1" d="M18.1,2.1h0c8.8,0,16,7.2,16,16h0c0,8.8-7.2,16-16,16h0c-8.8,0-16-7.2-16-16h0C2.1,9.3,9.2,2.1,18.1,2.1Z"/>
  <g class="st8">
    <g>
      <path class="st7" d="M6.1,6.1c-7.3,16.3,13.2,10,8.7,25.2-.9.2-1.7,0-2.2-.6,3.9-12.9-16.7-7.1-8.6-25.5.8-.2,1.5,0,2.1.9Z"/>
      <path class="st6" d="M6.1,6.1c-7.3,16.3,13.2,10,8.7,25.2-.7.2-1.2,0-1.7-.2.2-.6.4-1.1.4-1.2,3.3-12.2-15.9-6.6-8-24.5.2.2.5.4.7.7Z"/>
      <path class="st3" d="M21.4,19c.3.4.7.6,1.2.6s1.2-.4,1.4-.9c.3.4.7.6,1.2.6s1.2-.4,1.4-1c.3.3.6.4,1,.4.8,0,1.5-.6,1.5-1.4.2.2.6.3.9.3.8,0,1.5-.7,1.5-1.5h0c0,0,.2,0,.3,0,.8,0,1.5-.7,1.5-1.5s0-.3,0-.4c1.3-1.6,1.2-2.9-.8-2.9-.3-.3-.6-.4-1-.4s-.7.1-1,.3c-.2-.1-.5-.2-.7-.2s-.6,0-.8.3c-.3-.3-.7-.5-1.1-.5s-.6,0-.8.2c-.2-.5-.8-.9-1.4-.9s-.7.1-.9.3c0-.7-.7-1.3-1.5-1.3s-.9.2-1.1.5c0-.7-.7-1.3-1.5-1.3s-.6.1-.9.3c0-.7-.7-1.3-1.5-1.3s-.8.2-1,.4c-.1-.7-.7-1.2-1.5-1.2s-1,.3-1.2.6c-.2-.5-.8-.9-1.4-.9s-1,.3-1.3.7c-.3-.5-.7-.8-1.3-.8s-1.3.5-1.4,1.1c0,0,0,0,0,0-.3-.4-.7-.6-1.2-.6-.8,0-1.5.7-1.5,1.5s0,.2,0,.2c0,0,0,0,0,0-.8,0-1.5.7-1.5,1.5s0,.4.1.6c-1,.3-1.2,1.7-.3,2.4-.7.2-.9,1.4-.3,1.9.7,0,1.4,0,1,1.2-.3,1,.2,1.7,1.2,1.7s.2,0,.2,0c0,0,0,.1,0,.2,0,.8.7,1.5,1.5,1.5s.4,0,.6-.1c.2.6.8,1.1,1.4,1.1s.7-.1,1-.3c.3.4.7.7,1.2.7s.7-.1.9-.3c.3.4.7.7,1.3.7s1.3-.5,1.5-1.2c.3.3.7.5,1.2.5.7,0,1.3-.5,1.5-1.2.2.5.8.9,1.4.9s1.3-.5,1.4-1.1h0Z"/>
      <path class="st4" d="M21.4,19c.3.4.7.6,1.2.6s1.2-.4,1.4-.9c.3.4.7.6,1.2.6s1.2-.4,1.4-1c.3.3.6.4,1,.4.8,0,1.5-.6,1.5-1.4.2.2.6.3.9.3.8,0,1.5-.7,1.5-1.5h0c0,0,.2,0,.3,0,.8,0,1.5-.7,1.5-1.5s0-.3,0-.4c.6-.7.9-1.4.8-1.9-.3,1-1.1,2.2-2.3,1.9h0c0,.8-.7,1.5-1.5,1.5s-.6-.1-.9-.3c0,.8-.7,1.4-1.5,1.4s-.8-.2-1.1-.4c-.2.6-.8,1-1.4,1s-1-.3-1.2-.6c-.2.6-.8,1-1.4,1s-.9-.2-1.2-.6c-.2.6-.8,1.1-1.5,1.1s-1.2-.4-1.4-.9c-.2.7-.8,1.2-1.5,1.2s-.9-.2-1.2-.6c-.1.7-.7,1.2-1.5,1.2s-1-.3-1.3-.7c-.3.2-.6.3-.9.3-.5,0-1-.3-1.3-.7-.3.2-.6.3-1,.3-.7,0-1.3-.5-1.4-1.1-.2,0-.4.1-.6.1-.8,0-1.5-.7-1.5-1.5s0-.1,0-.2c0,0-.2,0-.2,0-.5,0-.9-.2-1.1-.5,0,.2,0,.4,0,.6-.3,1,.2,1.7,1.2,1.7s.2,0,.2,0c0,0,0,.1,0,.2,0,.8.7,1.5,1.5,1.5s.4,0,.6-.1c.2.6.8,1.1,1.4,1.1s.7-.1,1-.3c.3.4.7.7,1.2.7s.7-.1.9-.3c.3.4.7.7,1.3.7s1.3-.5,1.5-1.2c.3.3.7.5,1.2.5.7,0,1.3-.5,1.5-1.2.2.5.8.9,1.4.9s1.3-.5,1.4-1.1h0Z"/>
      <path class="st2" d="M4.2,14.8c.6.3.9.8,1,1.1h0c11.7-6.3,13.7,3.7,26.5-2.3-12.5,4.8-16-5-27.6,1.2h0Z"/>
      <path class="st5" d="M10.4,7c.6,0,1.1.5,1.1,1.1s-.5,1.1-1.1,1.1-1.1-.5-1.1-1.1.5-1.1,1.1-1.1Z"/>
      <path class="st5" d="M7.7,7.4c.5,0,.9.4.9.9s-.4.9-.9.9-.9-.4-.9-.9.4-.9.9-.9Z"/>
      <path class="st5" d="M9.4,9.4c.6,0,1.1.5,1.1,1.1s-.5,1.1-1.1,1.1-1.1-.5-1.1-1.1.5-1.1,1.1-1.1Z"/>
      <path class="st5" d="M6.3,9.3c.4,0,.8.4.8.8s-.4.8-.8.8-.8-.4-.8-.8.4-.8.8-.8Z"/>
      <path class="st5" d="M5.9,11.3c.4,0,.8.4.8.8s-.4.8-.8.8-.8-.4-.8-.8.4-.8.8-.8Z"/>
      <path class="st5" d="M7.8,11.4c.4,0,.8.3.8.8s-.3.8-.8.8-.8-.4-.8-.8.3-.8.8-.8Z"/>
      <path class="st5" d="M12.9,7.4c.4,0,.8.3.8.8s-.4.8-.8.8-.8-.4-.8-.8.3-.8.8-.8Z"/>
      <path class="st5" d="M12.5,9.7c.6,0,1,.5,1,1s-.5,1-1,1-1-.5-1-1,.5-1,1-1Z"/>
      <path class="st5" d="M15.2,7.8c.4,0,.8.3.8.8s-.3.8-.8.8-.8-.3-.8-.8.3-.8.8-.8Z"/>
      <path class="st5" d="M15.4,9.7c.7,0,1.3.6,1.3,1.3s-.6,1.3-1.3,1.3-1.3-.6-1.3-1.3.6-1.3,1.3-1.3Z"/>
      <path class="st5" d="M18,8.5c.6,0,1,.5,1,1s-.5,1-1,1-1-.5-1-1,.5-1,1-1Z"/>
      <path class="st5" d="M18.4,11.3c.6,0,1,.5,1,1s-.5,1-1,1-1-.5-1-1,.5-1,1-1Z"/>
      <path class="st5" d="M20.4,9.6c.4,0,.8.4.8.8s-.4.8-.8.8-.8-.4-.8-.8.4-.8.8-.8Z"/>
      <path class="st5" d="M20.8,11.9c.4,0,.7.3.7.7s-.3.7-.7.7-.7-.3-.7-.7.3-.7.7-.7Z"/>
      <path class="st5" d="M22.8,10.4c.5,0,.9.4.9.9s-.4.9-.9.9-.9-.4-.9-.9.4-.9.9-.9Z"/>
      <path class="st5" d="M22.5,12.9c.4,0,.7.3.7.7s-.3.7-.7.7-.7-.3-.7-.7.3-.7.7-.7Z"/>
      <path class="st5" d="M25.2,11.1c.3,0,.6.3.6.6s-.3.6-.6.6-.6-.3-.6-.6.3-.6.6-.6Z"/>
      <path class="st5" d="M24.6,13c.4,0,.8.3.8.8s-.3.8-.8.8-.8-.3-.8-.8.3-.8.8-.8Z"/>
      <path class="st5" d="M26.7,13.5c.3,0,.5.2.5.5s-.2.5-.5.5-.5-.2-.5-.5.2-.5.5-.5Z"/>
      <path class="st5" d="M27.2,11.7c.4,0,.7.3.7.7s-.3.7-.7.7-.7-.3-.7-.7.3-.7.7-.7Z"/>
      <path class="st5" d="M28.4,13.3c.3,0,.5.2.5.5s-.2.5-.5.5-.5-.2-.5-.5.2-.5.5-.5Z"/>
      <path class="st5" d="M29.6,12c.3,0,.6.3.6.6s-.3.6-.6.6-.6-.3-.6-.6.3-.6.6-.6Z"/>
      <path class="st5" d="M30.9,12.9c.2,0,.4.2.4.4s-.2.4-.4.4-.4-.2-.4-.4.2-.4.4-.4Z"/>
      <path class="st5" d="M31.4,11.6c.3,0,.5.2.5.5s-.2.5-.5.5-.5-.2-.5-.5.2-.5.5-.5Z"/>
      <path class="st5" d="M32.7,12.4c.2,0,.3.1.3.3s-.1.3-.3.3-.3-.1-.3-.3.1-.3.3-.3Z"/>
      <path class="st5" d="M8.5,15.3c.4,0,.8.3.8.8s-.3.8-.8.8-.8-.3-.8-.8.3-.8.8-.8Z"/>
      <path class="st5" d="M11.2,15.1c.6,0,1.1.5,1.1,1.1s-.5,1.1-1.1,1.1-1.1-.5-1.1-1.1.5-1.1,1.1-1.1Z"/>
      <path class="st5" d="M13.5,16.4c.4,0,.8.4.8.8s-.3.8-.8.8-.8-.3-.8-.8.3-.8.8-.8Z"/>
      <path class="st5" d="M13.4,14.5c.3,0,.6.3.6.6s-.3.6-.6.6-.6-.3-.6-.6.3-.6.6-.6Z"/>
      <path class="st5" d="M10.7,11.5c.2,0,.4.2.4.4s-.2.4-.4.4-.4-.2-.4-.4.2-.4.4-.4Z"/>
      <path class="st5" d="M15.5,14.8c.4,0,.8.3.8.8s-.3.8-.8.8-.8-.3-.8-.8.3-.8.8-.8Z"/>
      <path class="st5" d="M16.9,16.7c.3,0,.5.2.5.5s-.2.5-.5.5-.5-.2-.5-.5.2-.5.5-.5Z"/>
      <path class="st5" d="M15.2,17.3c.2,0,.3.1.3.3s-.1.3-.3.3-.3-.1-.3-.3.1-.3.3-.3Z"/>
      <path class="st5" d="M18.3,15.4c.3,0,.6.3.6.6s-.3.6-.6.6-.6-.3-.6-.6.3-.6.6-.6Z"/>
      <path class="st5" d="M20.2,16.4c.3,0,.5.2.5.5s-.2.5-.5.5-.5-.2-.5-.5.2-.5.5-.5Z"/>
      <path class="st5" d="M22.8,15.9c.4,0,.7.3.7.7s-.3.7-.7.7-.7-.3-.7-.7.3-.7.7-.7Z"/>
      <path class="st5" d="M25.3,16c.3,0,.5.2.5.5s-.2.5-.5.5-.5-.2-.5-.5.2-.5.5-.5Z"/>
      <path class="st5" d="M27.3,15.9c.2,0,.3.1.3.3s-.1.3-.3.3-.3-.1-.3-.3.1-.3.3-.3Z"/>
      <path class="st5" d="M30.3,14.8c.2,0,.3.1.3.3s-.1.3-.3.3-.3-.1-.3-.3.1-.3.3-.3Z"/>
    </g>
  </g>
  <metadata>
    <sfw xmlns="http://ns.adobe.com/SaveForWeb/1.0/">
      <slices/>
      <sliceSourceBounds x="2.08" y="1.9" width="32" height="32" bottomLeftOrigin="true"/>
    </sfw>
  </metadata>
</svg>