<?xml version="1.0" encoding="UTF-8"?>
<svg id="Layer_1" xmlns="http://www.w3.org/2000/svg" version="1.1" viewBox="0 0 1003.1 146">
  <!-- Generator: Adobe Illustrator 29.1.0, SVG Export Plug-In . SVG Version: 2.1.0 Build 142)  -->
  <g>
    <polygon points="252.8 33.5 182.7 33.5 182.7 45.4 211.4 45.4 211.4 115.3 224 115.3 224 45.4 252.8 45.4 252.8 33.5"/>
    <path d="M259.6,63.8v-5.5h-12.2v57h12.2v-35.9c4.3-6.6,10.8-10.4,18.4-10.6h2.2v-11.9h-2.3c-7,0-13.3,2.4-18.3,6.9Z"/>
    <path d="M329.6,61.8c-4.8-3.2-10.5-4.8-16.7-4.8-16.2,0-29.4,13.4-29.4,29.9s13.2,30,29.4,30,12-1.7,16.7-4.8v3.4h12.2v-57h-12.2v3.5ZM329.6,97.4c-3.9,5.3-9.3,8-15.7,8-10.1,0-18.1-8.2-18.1-18.7s8.1-18.6,18.1-18.6,11.8,2.8,15.7,8v21.2Z"/>
    <path d="M386,56.6c-6.3,0-12.3,1.9-17.2,5.3v-3.6h-12.2v57h12.2v-38.8c4-5.2,9.9-8.3,15.8-8.3,8.6,0,13.8,5.6,13.8,14.9v32.2h12.2v-32.5c0-15.7-9.9-26.3-24.7-26.3Z"/>
    <path d="M452.2,81.7l-10.5-1.8c-8.4-1.3-8.4-4.8-8.4-6,0-3.9,4.5-6.5,11.2-6.5s12.3,1.5,13.3,8.5l.3,1.9h11.5l-.2-2.4c-1-13.9-14.1-18.8-25-18.8s-23.3,7.2-23.3,17.8,3,14.1,17.5,16.3l12,2.1c2.7.4,7.2,1.7,7.2,6.1s-6.1,7.1-12.1,7.1c-8.6,0-13.8-3.3-15.2-9.7l-.4-1.8h-11.7l.4,2.6c1.8,12.6,11.5,19.9,26.7,19.9s24.3-7.4,24.3-18.5-5.9-14.9-17.6-16.8Z"/>
    <path d="M509.4,56.9c-6.3,0-12,1.7-16.7,4.9v-3.5h-12.2v85.2h12.2v-31.6c4.8,3.2,10.5,4.9,16.7,4.9,16.5,0,29.4-13.2,29.4-30s-13.2-29.9-29.4-29.9ZM492.7,76.5c3.8-5.4,9.3-8.2,15.8-8.2,10,0,18.1,8.3,18.1,18.6s-8.1,18.7-18.1,18.7-12-2.8-15.8-8.2v-20.8Z"/>
    <rect x="550.3" y="33.5" width="12.2" height="81.8"/>
    <path d="M620.3,61.8c-4.8-3.2-10.5-4.8-16.7-4.8-16.2,0-29.4,13.4-29.4,29.9s13.2,30,29.4,30,12-1.7,16.7-4.8v3.4h12.2v-57h-12.2v3.5ZM620.3,97.4c-3.9,5.3-9.3,8-15.7,8-10.1,0-18.1-8.2-18.1-18.7s8.1-18.6,18.1-18.6,11.8,2.8,15.7,8v21.2Z"/>
    <path d="M676.7,56.6c-6.3,0-12.3,1.9-17.2,5.3v-3.6h-12.2v57h12.2v-38.8c4-5.2,9.9-8.3,15.8-8.3,8.6,0,13.8,5.6,13.8,14.9v32.2h12.2v-32.5c0-15.7-9.9-26.3-24.7-26.3Z"/>
    <path d="M748.2,104.1c-2.9.8-5.9,1.3-8.3,1.3-5.8,0-9.5-1.9-9.5-11.2v-24.7h19.9v-11.2h-19.9v-19.4h-12.2v19.4h-14v11.2h14v24.7c0,18.9,11.1,22.8,20.5,22.8s7.1-.5,12-1.9l2-.6-2.1-11.2-2.4.7Z"/>
    <path d="M791.4,81.7l-10.5-1.8c-8.4-1.3-8.4-4.8-8.4-6,0-3.9,4.5-6.5,11.2-6.5s12.3,1.5,13.3,8.5l.3,1.9h11.5l-.2-2.4c-1-13.9-14.1-18.8-25-18.8s-23.3,7.2-23.3,17.8,3,14.1,17.5,16.3l12,2.1c2.7.4,7.2,1.7,7.2,6.1s-6.1,7.1-12.1,7.1c-8.6,0-13.8-3.3-15.2-9.7l-.4-1.8h-11.7l.4,2.6c1.8,12.6,11.5,19.9,26.7,19.9s24.3-7.4,24.3-18.5-5.9-14.9-17.6-16.8Z"/>
    <path d="M824,101.8c-4.3,0-7.6,3.3-7.6,7.5s3.3,7.5,7.6,7.5,7.6-3.3,7.6-7.5-3.3-7.5-7.6-7.5Z"/>
    <path d="M866,56.9c-17,0-30.2,13.1-30.2,29.9s13.3,30.2,30.2,30.2,30.1-13.3,30.1-30.2-13.2-29.9-30.1-29.9ZM866,105.5c-10,0-17.9-8.2-17.9-18.7s7.8-18.2,17.9-18.2,17.9,8,17.9,18.2-7.8,18.7-17.9,18.7Z"/>
    <path d="M919.1,63.8v-5.5h-12.2v57h12.2v-35.9c4.3-6.6,10.8-10.4,18.4-10.6h2.2v-11.9h-2.3c-7,0-13.3,2.4-18.3,6.9Z"/>
    <path d="M989.1,58.3v3.3c-5-3.4-11-5.1-17.5-5.1-16.4,0-28.8,12.8-28.8,29.7s12.9,29.2,28.8,29.2,12.5-1.8,17.5-5.1v2.3h-.1v2.3c0,10.2-6.2,16.5-16,16.5s-14.4-4.1-15.8-10.6l-.4-1.8h-12.4l.4,2.6c2,12.8,13.3,21.5,28.2,21.5s28.4-11.3,28.4-28.2v-56.5h-12.2ZM972.5,104c-9.6,0-17.4-8-17.4-17.9s7.5-18.3,17.4-18.3,12.6,3,16.5,8.3v19.5c-3.9,5.4-9.7,8.3-16.5,8.3Z"/>
  </g>
  <path d="M87.8,143.6h-36.2c-2.2,0-4-1.8-4-4v-49.4c0-28.3,23.1-51.4,51.4-51.4h31.3V10.5h-22c-18.3,0-26,7.4-34.1,15.2-.6.6-1.3,1.2-1.9,1.8s-1.2,1.2-1.8,1.8c-8.5,8.1-18.1,17.4-39.6,17.4H6.2c-2.2,0-4-1.8-4-4V6.6c0-2.2,1.8-4,4-4h24.9c10.8,0,21.6,2.9,30.8,8.3,1.9,1.1,2.5,3.5,1.4,5.4-1.1,1.9-3.5,2.5-5.4,1.4-8.1-4.8-17.4-7.3-26.9-7.3H10.1v28.3h20.9c18.3,0,26-7.4,34.1-15.2.6-.6,1.3-1.2,1.9-1.8.6-.6,1.2-1.2,1.9-1.8,8.5-8.2,18.1-17.4,39.6-17.4h25.9c2.2,0,4,1.8,4,4v36.2c0,2.2-1.8,4-4,4h-35.2c-24,0-43.6,19.5-43.6,43.5v45.5h28.4V58.7c0-2.2,1.8-4,4-4s4,1.8,4,4v81c0,2.2-1.8,4-4,4h0Z"/>
  <metadata>
    <sfw xmlns="http://ns.adobe.com/SaveForWeb/1.0/">
      <slices/>
      <sliceSourceBounds x="2.19" y="2.28" width="999.11" height="141.13" bottomLeftOrigin="true"/>
    </sfw>
  </metadata>
</svg>