<?xml version="1.0" encoding="UTF-8"?>
<svg id="Layer_1" xmlns="http://www.w3.org/2000/svg" version="1.1" viewBox="0 0 1000 146">
  <!-- Generator: Adobe Illustrator 29.1.0, SVG Export Plug-In . SVG Version: 2.1.0 Build 142)  -->
  <defs>
    <style>
      .st0 {
        fill: #2670f1;
      }

      .st1 {
        fill: #000a04;
      }
    </style>
  </defs>
  <path class="st1" d="M985,58.6v3.3c-5-3.4-10.9-5.1-17.4-5.1-16.3,0-28.7,12.7-28.7,29.5s12.8,29,28.7,29,12.4-1.8,17.4-5.1v2.3h-.1v2.3c0,10.1-6.2,16.4-15.9,16.4s-14.3-4.1-15.7-10.5l-.4-1.8h-12.3l.4,2.6c2,12.7,13.2,21.4,28.1,21.4s28.3-11.2,28.3-28v-56.2h-12.2ZM968.5,104.2c-9.5,0-17.3-8-17.3-17.8s7.5-18.2,17.3-18.2,12.5,3,16.4,8.2v19.4c-3.9,5.4-9.6,8.2-16.4,8.2h0Z"/>
  <path class="st1" d="M915.3,64.2v-5.5h-12.1v56.7h12.1v-35.7c4.3-6.6,10.7-10.3,18.3-10.5h2.2v-11.8h-2.3c-7,0-13.2,2.4-18.2,6.9Z"/>
  <path class="st1" d="M862.5,57.3c-16.9,0-30,13-30,29.7s13.2,30,30,30,29.9-13.2,29.9-30-13.1-29.7-29.9-29.7ZM862.5,105.6c-9.9,0-17.8-8.1-17.8-18.6s7.8-18.1,17.8-18.1,17.8,8,17.8,18.1-7.8,18.6-17.8,18.6Z"/>
  <path class="st1" d="M820.7,102c-4.3,0-7.6,3.3-7.6,7.5s3.3,7.5,7.6,7.5,7.6-3.3,7.6-7.5-3.3-7.5-7.6-7.5Z"/>
  <path class="st1" d="M788.2,82l-10.4-1.8c-8.4-1.3-8.4-4.8-8.4-6,0-3.9,4.5-6.5,11.1-6.5s12.2,1.5,13.2,8.4l.3,1.9h11.4l-.2-2.4c-1-13.8-14-18.7-24.9-18.7s-23.2,7.2-23.2,17.7,3,14,17.4,16.2l11.9,2.1c2.7.4,7.2,1.7,7.2,6.1s-6.1,7.1-12,7.1c-8.6,0-13.7-3.3-15.1-9.6l-.4-1.8h-11.6l.4,2.6c1.8,12.5,11.4,19.8,26.6,19.8s24.2-7.4,24.2-18.4-5.9-14.8-17.5-16.7Z"/>
  <path class="st1" d="M745.3,104.2c-2.9.8-5.9,1.3-8.3,1.3-5.8,0-9.5-1.9-9.5-11.1v-24.5h19.8v-11.1h-19.8v-19.3h-12.1v19.3h-13.9v11.1h13.9v24.5c0,18.8,11,22.7,20.4,22.7s7.1-.5,11.9-1.9l2-.6-2.1-11.1-2.4.7h0Z"/>
  <path class="st1" d="M674.2,56.9c-6.3,0-12.2,1.9-17.1,5.3v-3.6h-12.1v56.7h12.1v-38.6c4-5.2,9.8-8.2,15.7-8.2,8.6,0,13.7,5.6,13.7,14.8v32h12.1v-32.3c0-15.6-9.8-26.1-24.6-26.1h0Z"/>
  <path class="st1" d="M618.1,62.1c-4.8-3.2-10.4-4.8-16.6-4.8-16.1,0-29.2,13.3-29.2,29.7s13.1,29.8,29.2,29.8,11.9-1.7,16.6-4.8v3.4h12.1v-56.7h-12.1v3.5-.2ZM618.1,97.6c-3.9,5.3-9.3,8-15.6,8-10,0-18-8.1-18-18.6s8.1-18.5,18-18.5,11.7,2.8,15.6,8v21.1h0Z"/>
  <path class="st1" d="M560.6,34.1h-12.1v81.3h12.1V34.1Z"/>
  <path class="st1" d="M507.8,57.3c-6.3,0-11.9,1.7-16.6,4.9v-3.5h-12.1v84.7h12.1v-31.4c4.8,3.2,10.4,4.9,16.6,4.9,16.4,0,29.2-13.1,29.2-29.8s-13.1-29.7-29.2-29.7ZM491.1,76.7c3.8-5.4,9.3-8.1,15.7-8.1,9.9,0,18,8.2,18,18.5s-8.1,18.6-18,18.6-11.9-2.8-15.7-8.2v-20.7h0Z"/>
  <path class="st1" d="M450.9,82l-10.4-1.8c-8.4-1.3-8.4-4.8-8.4-6,0-3.9,4.5-6.5,11.1-6.5s12.2,1.5,13.2,8.4l.3,1.9h11.4l-.2-2.4c-1-13.8-14-18.7-24.9-18.7s-23.2,7.2-23.2,17.7,3,14,17.4,16.2l11.9,2.1c2.7.4,7.2,1.7,7.2,6.1s-6.1,7.1-12,7.1c-8.6,0-13.7-3.3-15.1-9.6l-.4-1.8h-11.6l.4,2.6c1.8,12.5,11.4,19.8,26.6,19.8s24.2-7.4,24.2-18.4-5.9-14.8-17.5-16.7Z"/>
  <path class="st1" d="M384.9,56.9c-6.3,0-12.2,1.9-17.1,5.3v-3.6h-12.1v56.7h12.1v-38.6c4-5.2,9.8-8.2,15.7-8.2,8.6,0,13.7,5.6,13.7,14.8v32h12.1v-32.3c0-15.6-9.8-26.1-24.6-26.1h0Z"/>
  <path class="st1" d="M328.9,62.1c-4.8-3.2-10.4-4.8-16.6-4.8-16.1,0-29.2,13.3-29.2,29.7s13.1,29.8,29.2,29.8,11.9-1.7,16.6-4.8v3.4h12.1v-56.7h-12.1v3.5-.2ZM328.9,97.6c-3.9,5.3-9.3,8-15.6,8-10,0-18-8.1-18-18.6s8.1-18.5,18-18.5,11.7,2.8,15.6,8v21.1h0Z"/>
  <path class="st1" d="M259.3,64.2v-5.5h-12.1v56.7h12.1v-35.7c4.3-6.6,10.7-10.3,18.3-10.5h2.2v-11.8h-2.3c-7,0-13.2,2.4-18.2,6.9Z"/>
  <path class="st1" d="M252.5,34.1h-69.7v11.8h28.6v69.5h12.5V45.9h28.7v-11.8Z"/>
  <path class="st0" d="M87.8,143.6h-36.2c-2.2,0-4-1.8-4-4v-49.4c0-28.3,23.1-51.4,51.4-51.4h31.3V10.5h-22c-18.3,0-26,7.4-34.1,15.2-.6.6-1.3,1.2-1.9,1.8s-1.2,1.2-1.8,1.8c-8.5,8.1-18.1,17.4-39.6,17.4H6.2c-2.2,0-4-1.8-4-4V6.6c0-2.2,1.8-4,4-4h24.9c10.8,0,21.6,2.9,30.8,8.3,1.9,1.1,2.5,3.5,1.4,5.4-1.1,1.9-3.5,2.5-5.4,1.4-8.1-4.8-17.4-7.3-26.9-7.3H10.1v28.3h20.9c18.3,0,26-7.4,34.1-15.2.6-.6,1.3-1.2,1.9-1.8.6-.6,1.2-1.2,1.9-1.8,8.5-8.2,18.1-17.4,39.6-17.4h25.9c2.2,0,4,1.8,4,4v36.2c0,2.2-1.8,4-4,4h-35.2c-24,0-43.6,19.5-43.6,43.5v45.5h28.4V58.7c0-2.2,1.8-4,4-4s4,1.8,4,4v81c0,2.2-1.8,4-4,4h0Z"/>
  <metadata>
    <sfw xmlns="http://ns.adobe.com/SaveForWeb/1.0/">
      <slices/>
      <sliceSourceBounds x="2.19" y="2.28" width="995.03" height="141.13" bottomLeftOrigin="true"/>
    </sfw>
  </metadata>
</svg>