<svg width="1000" height="146" viewBox="0 0 1000 146" fill="none" xmlns="http://www.w3.org/2000/svg">
<path d="M984.978 58.6381V61.918C980.004 58.5387 974.035 56.8491 967.568 56.8491C951.253 56.8491 938.917 69.571 938.917 86.368C938.917 103.165 951.751 115.39 967.568 115.39C983.386 115.39 980.004 113.601 984.978 110.321V112.607H984.878V114.893C984.878 125.031 978.711 131.292 968.961 131.292C959.212 131.292 954.636 127.217 953.243 120.757L952.845 118.968H940.509L940.907 121.552C942.897 134.274 954.138 142.921 968.961 142.921C983.784 142.921 997.214 131.69 997.214 114.893V58.7375H985.077L984.978 58.6381ZM968.464 104.159C958.914 104.159 951.154 96.2077 951.154 86.368C951.154 76.5284 958.615 68.1796 968.464 68.1796C978.313 68.1796 980.999 71.1613 984.878 76.429V95.8101C980.999 101.177 975.229 104.059 968.464 104.059V104.159Z" fill="#000A04"/>
<path d="M915.34 64.2039V58.7375H903.203V115.39H915.34V79.7088C919.618 73.1491 926.084 69.3722 933.645 69.1735H935.833V57.346H933.545C926.582 57.346 920.314 59.7314 915.34 64.2039Z" fill="#000A04"/>
<path d="M862.515 57.346C845.603 57.346 832.471 70.3662 832.471 87.0637C832.471 103.761 845.702 117.08 862.515 117.08C879.328 117.08 892.459 103.861 892.459 87.0637C892.459 70.2668 879.328 57.346 862.515 57.346ZM862.515 105.55C852.567 105.55 844.708 97.4003 844.708 86.9643C844.708 76.5284 852.467 68.8753 862.515 68.8753C872.563 68.8753 880.322 76.8265 880.322 86.9643C880.322 97.1022 872.563 105.55 862.515 105.55Z" fill="#000A04"/>
<path d="M820.732 101.972C816.455 101.972 813.172 105.252 813.172 109.427C813.172 113.601 816.455 116.881 820.732 116.881C825.01 116.881 828.293 113.601 828.293 109.427C828.293 105.252 825.01 101.972 820.732 101.972Z" fill="#000A04"/>
<path d="M788.201 81.9948L777.756 80.2058C769.399 78.9137 769.399 75.435 769.399 74.2424C769.399 70.3661 773.876 67.782 780.541 67.782C787.206 67.782 792.778 69.2728 793.772 76.2302L794.071 78.1186H805.511L805.312 75.7332C804.318 61.918 791.285 57.0478 780.442 57.0478C769.598 57.0478 757.262 64.2039 757.262 74.7393C757.262 85.2747 760.247 88.7534 774.672 90.9399L786.61 93.0271C789.296 93.4247 793.772 94.7168 793.772 99.09C793.772 103.463 787.704 106.147 781.735 106.147C773.179 106.147 768.006 102.867 766.614 96.5058L766.216 94.7168H754.576L754.974 97.3009C756.765 109.824 766.415 117.08 781.536 117.08C796.657 117.08 805.71 109.725 805.71 98.6924C805.71 87.6601 799.841 83.8832 788.201 81.9948Z" fill="#000A04"/>
<path d="M745.324 104.159C742.439 104.954 739.455 105.451 737.067 105.451C731.297 105.451 727.616 103.563 727.616 94.3193V69.7698H747.413V58.6381H727.616V39.3564H715.48V58.6381H701.552V69.7698H715.48V94.3193C715.48 113.104 726.522 116.98 735.874 116.98C745.225 116.98 742.937 116.483 747.811 115.092L749.801 114.496L747.712 103.364L745.324 104.06V104.159Z" fill="#000A04"/>
<path d="M674.194 56.9484C667.927 56.9484 661.958 58.8369 657.083 62.2161V58.6381H644.946V115.291H657.083V76.7271C661.062 71.5588 666.932 68.4777 672.801 68.4777C681.357 68.4777 686.53 74.0436 686.53 83.2869V115.291H698.667V82.9887C698.667 67.3844 688.818 56.8491 674.095 56.8491L674.194 56.9484Z" fill="#000A04"/>
<path d="M618.086 62.1167C613.311 58.9363 607.64 57.346 601.472 57.346C585.356 57.346 572.225 70.6643 572.225 87.0637C572.225 103.463 585.356 116.881 601.472 116.881C617.589 116.881 613.41 115.191 618.086 112.11V115.489H630.223V58.8369H618.086V62.3155V62.1167ZM618.086 97.5991C614.206 102.867 608.834 105.55 602.467 105.55C592.42 105.55 584.461 97.4003 584.461 86.9643C584.461 76.5284 592.519 68.4777 602.467 68.4777C612.416 68.4777 614.206 71.2607 618.086 76.429V97.4997V97.5991Z" fill="#000A04"/>
<path d="M560.585 34.0887H548.448V115.39H560.585V34.0887Z" fill="#000A04"/>
<path d="M507.76 57.346C501.492 57.346 495.822 59.0356 491.146 62.2161V58.7375H479.009V143.418H491.146V112.011C495.921 115.191 501.592 116.881 507.76 116.881C524.174 116.881 537.008 103.761 537.008 87.0637C537.008 70.3662 523.876 57.346 507.76 57.346ZM491.146 76.7271C494.927 71.3601 500.398 68.5771 506.864 68.5771C516.813 68.5771 524.871 76.8265 524.871 87.0637C524.871 97.301 516.813 105.65 506.864 105.65C496.916 105.65 494.927 102.867 491.146 97.4997V76.8265V76.7271Z" fill="#000A04"/>
<path d="M450.856 81.9948L440.41 80.2058C432.053 78.9137 432.053 75.435 432.053 74.2424C432.053 70.3661 436.53 67.782 443.195 67.782C449.861 67.782 455.432 69.2728 456.427 76.2302L456.725 78.1186H468.166L467.967 75.7332C466.972 61.918 453.94 57.0478 443.096 57.0478C432.252 57.0478 419.917 64.2039 419.917 74.7393C419.917 85.2747 422.901 88.7534 437.326 90.9399L449.264 93.0271C451.95 93.4247 456.427 94.7168 456.427 99.09C456.427 103.463 450.358 106.147 444.389 106.147C435.834 106.147 430.661 102.867 429.268 96.5058L428.87 94.7168H417.23L417.628 97.3009C419.419 109.824 429.069 117.08 444.19 117.08C459.312 117.08 468.365 109.725 468.365 98.6924C468.365 87.6601 462.495 83.8832 450.856 81.9948Z" fill="#000A04"/>
<path d="M384.899 56.9484C378.631 56.9484 372.662 58.8369 367.788 62.2161V58.6381H355.651V115.291H367.788V76.7271C371.767 71.5588 377.636 68.4777 383.506 68.4777C392.061 68.4777 397.234 74.0436 397.234 83.2869V115.291H409.371V82.9887C409.371 67.3844 399.522 56.8491 384.799 56.8491L384.899 56.9484Z" fill="#000A04"/>
<path d="M328.89 62.1167C324.115 58.9363 318.444 57.346 312.276 57.346C296.16 57.346 283.028 70.6643 283.028 87.0637C283.028 103.463 296.16 116.881 312.276 116.881C328.392 116.881 324.214 115.191 328.89 112.11V115.489H341.027V58.8369H328.89V62.3155V62.1167ZM328.89 97.5991C325.01 102.867 319.638 105.55 313.271 105.55C303.223 105.55 295.265 97.4003 295.265 86.9643C295.265 76.5284 303.323 68.4777 313.271 68.4777C323.219 68.4777 325.01 71.2607 328.89 76.429V97.4997V97.5991Z" fill="#000A04"/>
<path d="M259.252 64.2039V58.7375H247.115V115.39H259.252V79.7088C263.53 73.1491 269.996 69.3722 277.557 69.1735H279.745V57.346H277.457C270.493 57.346 264.226 59.7314 259.252 64.2039Z" fill="#000A04"/>
<path d="M252.487 34.0887H182.75V45.9161H211.301V115.39H223.836V45.9161H252.487V34.0887Z" fill="#000A04"/>
<path d="M87.8433 143.617H51.6316C49.443 143.617 47.6523 141.828 47.6523 139.641V90.2442C47.6523 61.918 70.7323 38.8594 99.0849 38.8594H130.422V10.5331H108.436C90.1314 10.5331 82.4713 17.888 74.3137 25.7399C73.7168 26.3362 73.0204 26.9326 72.4235 27.5289C71.8266 28.1252 71.2297 28.7216 70.6328 29.3179C62.1768 37.4679 52.527 46.7112 31.0387 46.7112H6.16803C3.97941 46.7112 2.18872 44.9222 2.18872 42.7356V6.55752C2.18872 4.37094 3.97941 2.58191 6.16803 2.58191H31.0387C41.8823 2.58191 52.6264 5.46423 61.8783 10.9307C63.7685 12.024 64.3654 14.4094 63.2711 16.2978C62.1768 18.1862 59.7892 18.7825 57.899 17.6892C49.8409 12.9185 40.4896 10.4337 31.0387 10.4337H10.1473V38.76H31.0387C49.3435 38.76 57.0037 31.4051 65.1613 23.5533C65.7582 22.9569 66.4545 22.3606 67.0514 21.7643C67.6483 21.1679 68.2452 20.5716 68.9416 19.9752C77.3976 11.8252 87.0475 2.58191 108.536 2.58191H134.401C136.59 2.58191 138.381 4.37094 138.381 6.55752V42.7356C138.381 44.9222 136.59 46.7112 134.401 46.7112H99.1844C75.209 46.7112 55.6109 66.1918 55.6109 90.2442V135.765H83.9635V58.7375C83.9635 56.5509 85.7542 54.7619 87.9428 54.7619C90.1314 54.7619 91.9221 56.5509 91.9221 58.7375V139.741C91.9221 141.927 90.1314 143.716 87.9428 143.716L87.8433 143.617Z" fill="#008EB1"/>
<path d="M87.8433 143.617H51.6316C49.443 143.617 47.6523 141.828 47.6523 139.641V90.2442C47.6523 61.918 70.7323 38.8594 99.0849 38.8594H130.422V10.5331H108.436C90.1314 10.5331 82.4713 17.888 74.3137 25.7399C73.7168 26.3362 73.0204 26.9326 72.4235 27.5289C71.8266 28.1252 71.2297 28.7216 70.6328 29.3179C62.1768 37.4679 52.527 46.7112 31.0387 46.7112H6.16803C3.97941 46.7112 2.18872 44.9222 2.18872 42.7356V6.55752C2.18872 4.37094 3.97941 2.58191 6.16803 2.58191H31.0387C41.8823 2.58191 52.6264 5.46423 61.8783 10.9307C63.7685 12.024 64.3654 14.4094 63.2711 16.2978C62.1768 18.1862 59.7892 18.7825 57.899 17.6892C49.8409 12.9185 40.4896 10.4337 31.0387 10.4337H10.1473V38.76H31.0387C49.3435 38.76 57.0037 31.4051 65.1613 23.5533C65.7582 22.9569 66.4545 22.3606 67.0514 21.7643C67.6483 21.1679 68.2452 20.5716 68.9416 19.9752C77.3976 11.8252 87.0475 2.58191 108.536 2.58191H134.401C136.59 2.58191 138.381 4.37094 138.381 6.55752V42.7356C138.381 44.9222 136.59 46.7112 134.401 46.7112H99.1844C75.209 46.7112 55.6109 66.1918 55.6109 90.2442V135.765H83.9635V58.7375C83.9635 56.5509 85.7542 54.7619 87.9428 54.7619C90.1314 54.7619 91.9221 56.5509 91.9221 58.7375V139.741C91.9221 141.927 90.1314 143.716 87.9428 143.716L87.8433 143.617Z" fill="#2670F1"/>
</svg>
