<svg width="32" height="34" viewBox="0 0 32 34" fill="none" xmlns="http://www.w3.org/2000/svg">
<rect y="1" width="32" height="32" rx="16" fill="#FEE394"/>
<g clip-path="url(#clip0_2565_1351)">
<path fill-rule="evenodd" clip-rule="evenodd" d="M10.3199 8.39808C9.77681 6.51106 9.33311 4.57621 10.0069 2.10532C10.1481 1.58728 11.3082 1.75633 11.3352 2.09822C11.535 4.59515 12.519 6.44666 13.5504 8.25933C12.4736 8.30574 11.3968 8.35167 10.3199 8.39808Z" fill="#B80500"/>
<path fill-rule="evenodd" clip-rule="evenodd" d="M10.3199 8.39807C9.77681 6.51105 9.33311 4.5762 10.0069 2.10532C10.0069 2.10532 9.41124 6.64127 12.5654 7.639C13.4765 7.92738 13.3207 8.14047 12.6403 8.29815L10.3195 8.3976L10.3199 8.39807Z" fill="#9E0300"/>
<path fill-rule="evenodd" clip-rule="evenodd" d="M12.5166 6.28139C8.42628 6.05599 7.81211 9.73248 8.46369 12.9099C10.274 11.5788 12.0838 10.2477 13.8941 8.91659C13.4348 8.03819 12.9755 7.15979 12.5166 6.28139Z" fill="#B80500"/>
<path fill-rule="evenodd" clip-rule="evenodd" d="M17.3414 6.24492C22.6242 7.79337 22.8282 11.7384 19.7375 15.5555C18.5461 15.3396 17.3547 15.1236 16.1638 14.9082C16.0307 12.3 15.8976 9.69128 15.7646 7.0826C16.2902 6.80321 16.8163 6.52383 17.3419 6.24445L17.3414 6.24492Z" fill="#DB0700"/>
<path fill-rule="evenodd" clip-rule="evenodd" d="M16.0397 12.4799L15.7641 7.08308L15.8673 7.02815L17.5886 7.07929C17.5886 7.07929 19.6049 9.03592 17.3888 12.1702C16.7396 13.0884 16.3153 13.0259 16.0392 12.4799H16.0397Z" fill="#B80500"/>
<path fill-rule="evenodd" clip-rule="evenodd" d="M16.1557 9.29589C16.3186 6.78618 16.0473 2.99367 17.4006 0.763339C17.2927 0.354208 16.3314 -0.221605 15.7163 0.088084C12.9916 2.72802 12.1667 6.48028 11.8182 9.51419C12.7809 9.12306 15.193 9.68703 16.1557 9.29589Z" fill="#0066A9"/>
<path fill-rule="evenodd" clip-rule="evenodd" d="M17.4011 0.763339C17.2931 0.354209 16.3319 -0.221605 15.7167 0.088084C13.4064 2.32694 12.4617 5.36511 12.0156 8.08697L14.2076 8.88061C13.5503 5.91725 13.9064 3.11253 15.9649 0.574874C16.1514 0.409612 16.669 0.502424 17.4016 0.762866L17.4011 0.763339Z" fill="#004D90"/>
<path fill-rule="evenodd" clip-rule="evenodd" d="M10.5964 9.65198C8.37133 10.9817 7.15151 13.1717 7.00282 16.2781C6.89959 23.9204 9.83406 29.0885 14.3359 32.98C16.3409 34.7127 17.599 34.0777 19.2393 32.2778C23.915 27.1461 27.4717 16.7052 20.3938 13.4701C13.9467 10.5237 18.0096 5.88504 22.6189 3.25836C22.6554 2.61246 22.4068 2.07737 21.7244 1.71086C16.4346 3.32323 12.5412 5.85 10.5964 9.65292V9.65198Z" fill="#F52308"/>
<path fill-rule="evenodd" clip-rule="evenodd" d="M10.5964 9.65199C8.37132 10.9817 7.15151 13.1717 7.00282 16.2781C6.92279 22.2053 8.67012 26.6437 11.5587 30.1526C9.09488 26.0087 5.82231 14.6762 10.2678 12.5419C11.5909 11.9069 12.7714 13.9209 13.6067 14.7562C11.7324 9.51372 10.9611 9.52461 14.9577 4.82481C13.0555 6.14028 11.5781 7.73371 10.5969 9.65246L10.5964 9.65199Z" fill="#DB0700"/>
<path fill-rule="evenodd" clip-rule="evenodd" d="M21.4635 15.9855C24.2091 19.6757 22.2477 25.5299 20.1798 28.8257C21.1846 23.9218 20.9819 21.0892 19.5561 18.23C18.1597 15.4291 20.3706 14.5156 21.464 15.9855H21.4635Z" fill="#FF4F37"/>
</g>
<defs>
<clipPath id="clip0_2565_1351">
<rect width="17.3923" height="34" fill="white" transform="translate(7)"/>
</clipPath>
</defs>
</svg>
