<?xml version="1.0" encoding="UTF-8"?>
<svg id="Layer_1" xmlns="http://www.w3.org/2000/svg" xmlns:xlink="http://www.w3.org/1999/xlink" version="1.1" viewBox="0 0 36 36">
  <!-- Generator: Adobe Illustrator 29.2.1, SVG Export Plug-In . SVG Version: 2.1.0 Build 116)  -->
  <defs>
    <style>
      .st0 {
        fill: none;
      }

      .st1 {
        fill: #ffb078;
      }

      .st1, .st2, .st3, .st4, .st5, .st6 {
        fill-rule: evenodd;
      }

      .st2 {
        fill: #910000;
      }

      .st3 {
        fill: #db4628;
      }

      .st4 {
        fill: #c72703;
      }

      .st5 {
        fill: #ad0b00;
      }

      .st6 {
        fill: #ffbb83;
      }

      .st7 {
        clip-path: url(#clippath);
      }

      .st8 {
        fill: #fcd8e4;
      }
    </style>
    <clipPath id="clippath">
      <rect class="st0" x="6" y="8.2" width="27" height="20"/>
    </clipPath>
  </defs>
  <path class="st8" d="M18,2.2h0c8.8,0,16,7.2,16,16h0c0,8.8-7.2,16-16,16h0c-8.8,0-16-7.2-16-16h0C2,9.3,9.2,2.2,18,2.2Z"/>
  <g class="st7">
    <g>
      <path class="st2" d="M7.8,26.8c4.6-.2,5.5-.9,8.2-4.9,5.7.4,9.2-1.3,9.7-6.3-4.3,1.2-8.6,2.4-12.9,3.6-1.6,2.5-3.3,5.1-4.9,7.6Z"/>
      <path class="st1" d="M18.3,17.2h.9c-.2,3.5-.2,7.2,0,11h-1.2c.1-3.6.4-7.2.2-11Z"/>
      <path class="st4" d="M6.4,21.6c-1.7-9.1,1.8-14.8,11.3-13.2,2.3.4,3.6,1.7,5.7,1.2,2.7-.7,5.4-1.2,8.2-1.3,3.6,0-.4,4.2-2.1,4.8-1.6,3.3-3.8,5.1-6.7,5.3-1.3.1-2.3.6-3.2,1.2-4,4.5-4.6,3.8-9.7,5.9-.9.5-1.6,1.1-2.2,1.8-1.4,1.8-1.7,0-1.5-1.3.3-1.3.3-2.8.2-4.4Z"/>
      <path class="st5" d="M15.6,8.2c.7,0,1.4.1,2.1.2,1.6.3,2.7,1,3.9,1.2-1.4.7-2.1.9-2.5,2.5-.2.9-.3,2-.4,3-.1-3.7.8-6.3-3.1-7h0Z"/>
      <path class="st5" d="M33,9.4c-.3,1.3-2.4,3.2-3.5,3.7-1.6,3.3-3.8,5.1-6.7,5.3-1.3.1-2.3.6-3.2,1.2-4,4.5-4.6,3.8-9.7,5.9-.9.5-1.6,1.1-2.2,1.8-1.4,1.8-1.7,0-1.5-1.3,0-.5.1-.9.2-1.4.8,3.1,1.4-1.3,6-2,1.7-.3,3.2-.5,4.3-.9,1.3-.5,1.7-1.3,2.2-2.8,1.1-2.9,2.3-1.6,4.4-1.4,1.7.2,3.4-.9,4.3-2.4.5-.9.9-1.5.2-2.2-.6-.6-1.1-1.4-1.5-2.2,1.2.6,2.3,1.2,3.5,1.2,1.3-.2,2.3-1.2,3.3-2.3h0Z"/>
      <path class="st6" d="M18.8,8.7c1.6.5,2.8,1.3,4.5.9.4-.1.9-.2,1.3-.3-2.2,1.1-3.3,1.9-4,3.8-.6,1.8-.5,4.1.1,5.9-.3.1-.6.3-.8.4,0-.5,0-1.2,0-1.7-.4-3.1-.8-3.6,0-5.8.7-1.7.7-2.1-1.1-3.2Z"/>
      <path class="st3" d="M12.6,9.6c-1.4.4-4.3,1.8-5.2,6.2-.3,1.5,2.5,2.5,2.8.5.3-2.2,1.4-4.1,3-5.8.8-.8.6-1.3-.6-1Z"/>
    </g>
  </g>
  <metadata>
    <sfw xmlns="http://ns.adobe.com/SaveForWeb/1.0/">
      <slices/>
      <sliceSourceBounds x="2" y="1.84" width="32" height="32" bottomLeftOrigin="true"/>
    </sfw>
  </metadata>
</svg>