<?xml version="1.0" encoding="UTF-8"?>
<svg id="Layer_1" xmlns="http://www.w3.org/2000/svg" xmlns:xlink="http://www.w3.org/1999/xlink" version="1.1" viewBox="0 0 36 36">
  <!-- Generator: Adobe Illustrator 29.2.1, SVG Export Plug-In . SVG Version: 2.1.0 Build 116)  -->
  <defs>
    <style>
      .st0 {
        fill: none;
      }

      .st1 {
        fill: #e82e34;
      }

      .st1, .st2, .st3, .st4 {
        fill-rule: evenodd;
      }

      .st2 {
        fill: #f53c41;
      }

      .st5 {
        fill: #b6ddbe;
      }

      .st3 {
        fill: #ff888b;
      }

      .st4 {
        fill: #ff494e;
      }

      .st6 {
        clip-path: url(#clippath);
      }
    </style>
    <clipPath id="clippath">
      <rect class="st0" x="3.1" y="2.2" width="31" height="29"/>
    </clipPath>
  </defs>
  <path class="st5" d="M18.1,2.2h0c8.8,0,16,7.2,16,16h0c0,8.8-7.2,16-16,16h0c-8.8,0-16-7.2-16-16h0C2.1,9.3,9.3,2.2,18.1,2.2Z"/>
  <g class="st6">
    <g>
      <path class="st2" d="M22.4,7.5c-1-.3-1.9-.1-2.4.5-1.1,1.2-.5,3,.1,4.3,1,2,1,3.5.6,4.9-1.4,5.2.1,8.8,4.3,11.7,5.6,3.3,10.1,3.9,8.9-4.2-1.2-7.8-3.8-14.4-11.6-17.1Z"/>
      <path class="st2" d="M14.9,7.5c1-.3,1.9-.1,2.4.5,1.1,1.2.5,3-.1,4.3-1,2-1,3.5-.6,4.9,1.4,5.2-.1,8.8-4.3,11.7-5.6,3.3-10.1,3.9-8.9-4.2,1.2-7.8,3.8-14.4,11.6-17.1Z"/>
      <path class="st1" d="M20.3,19.9c-.2,3.8,1.4,6.6,4.8,8.9,5.1,3,9.3,3.8,9.1-2.3-2.3,7.1-13.8-.5-13.8-6.7h0Z"/>
      <path class="st1" d="M17,19.9c.2,3.8-1.4,6.6-4.8,8.9-5.1,3-9.3,3.8-9.1-2.3,2.3,7.1,13.8-.5,13.8-6.7Z"/>
      <path class="st4" d="M22.4,7.5c-.2,0-.3,0-.5,0-.8,1-.4,2.5.1,3.5.8,1.6,1,3.6.7,4.7-1.1,4.1.3,6,3.6,8.2,4.1,2.5,7.5,3,7.1-2.3-1.4-6.5-4.3-11.8-11-14.1h0Z"/>
      <path class="st4" d="M14.9,7.5c.2,0,.3,0,.5,0,.8,1,.4,2.5-.1,3.5-.8,1.6-1,3.6-.7,4.7,1.1,4.1-.3,6-3.6,8.2-4.1,2.5-7.5,3-7.1-2.3,1.4-6.5,4.3-11.8,11-14.1h0Z"/>
      <path class="st3" d="M17.9,2.8c0,1.9-.3,5.8-1,7.7-.4.9-.4.6-1.3.4-2.6-.8-1.6.1-4.6,0,1.9.9,2.1-.4,4.2.5.9.4,1.1.3.3.9-3,2.4-6.7.2-6.7,7,1.3-5.6,2.3-3.8,5.2-5.1,1.2-.5,1.6-.7.5.4-2.3,2.5-2.7,5.1-2,9.5.3-9.4,3.7-7.4,5.8-11.9.2-.4.4-.4.6,0,2.1,4.5,5.5,2.5,5.8,11.9.7-4.4.3-6.9-2-9.5-1-1.1-.6-1,.5-.4,2.9,1.3,3.9-.5,5.2,5.1,0-6.8-3.7-4.7-6.7-7-.8-.6-.6-.6.3-.9,2.1-.8,2.2.4,4.2-.5-3,0-2-.8-4.6,0-.9.3-.9.6-1.3-.4-.8-1.9-1.1-5.8-1-7.7,0-.9-1.4-.9-1.4,0h0Z"/>
    </g>
  </g>
  <metadata>
    <sfw xmlns="http://ns.adobe.com/SaveForWeb/1.0/">
      <slices/>
      <sliceSourceBounds x="2.11" y="1.84" width="32" height="32" bottomLeftOrigin="true"/>
    </sfw>
  </metadata>
</svg>