<?xml version="1.0" encoding="UTF-8"?>
<svg id="Layer_1" xmlns="http://www.w3.org/2000/svg" xmlns:xlink="http://www.w3.org/1999/xlink" version="1.1" viewBox="0 0 36 36">
  <!-- Generator: Adobe Illustrator 29.2.1, SVG Export Plug-In . SVG Version: 2.1.0 Build 116)  -->
  <defs>
    <style>
      .st0 {
        fill: none;
      }

      .st1 {
        fill: #df5b58;
      }

      .st1, .st2, .st3, .st4, .st5, .st6, .st7, .st8 {
        fill-rule: evenodd;
      }

      .st9 {
        fill: #aedfe3;
      }

      .st2, .st10 {
        fill: #ffb9b7;
      }

      .st3 {
        fill: #f37471;
      }

      .st11 {
        clip-path: url(#clippath-1);
      }

      .st4 {
        fill: #ffd753;
      }

      .st5 {
        fill: #ffd6d8;
      }

      .st6 {
        fill: #ffeeb6;
      }

      .st7 {
        fill: #f79f88;
      }

      .st8 {
        fill: #ffc5c3;
      }

      .st12 {
        clip-path: url(#clippath);
      }
    </style>
    <clipPath id="clippath">
      <rect class="st0" x="6" y="15.1" width="30" height="19.8"/>
    </clipPath>
    <clipPath id="clippath-1">
      <rect class="st0" x="5" y="0" width="16.9" height="28"/>
    </clipPath>
  </defs>
  <path class="st9" d="M18,2.1h0c8.8,0,16,7.2,16,16h0c0,8.8-7.2,16-16,16h0c-8.8,0-16-7.2-16-16h0C2,9.3,9.2,2.1,18,2.1Z"/>
  <g class="st12">
    <g>
      <path class="st7" d="M21,34.9h2.5c-.6-5.8,0-6.3,2.5-10.2,1.1-1.7,1.4-3.1,1.2-4.2.9-.3,1.9-.6,2.8-1.2,1.1-.7,2.4-3.4,3.5-3.3,1.3.1,1.6,1.4,1.5,2.5,0,.8-.4,1.3-1,1.8-.3.2-.4.2-.9,0-.5-.2-1.3-.2-1.8,0,0,0,0,0,0,0,.7,1.2,1,1.6,1.3,2.9,0,0,0,0,0,0,0,0,0,0,0,0,.5-.1.9-.6,1.2-1,.2-.5,0-.8.7-1.4.7-.6,1.2-1.4,1.3-2.4.2-1.6-.5-3.3-2.3-3.5-1.8-.2-3,2.1-4.3,2.9-1.4.9-2.7.5-3.9-.3-2.4-1.6-6.5-1.6-8.9,0-1.2.8-2.5,1-3.9.2-1.3-.8-2.5-3.1-4.3-2.9-1.8.2-2.5,1.9-2.3,3.5.1,1,.6,1.8,1.3,2.4.7.6.5.9.7,1.4.2.5.7.9,1.2,1h0s0,0,0,0c.3-1.3.7-1.7,1.3-2.9,0,0,0,0,0,0-.5-.2-1.3-.2-1.8,0-.6.2-.7.2-.9,0-.5-.4-.9-1-1-1.8-.1-1.1.2-2.4,1.5-2.5,1.1-.1,2.4,2.6,3.5,3.3.9.6,1.9.9,2.8,1.2-.2,1.1.2,2.6,1.2,4.2,2.5,3.9,3,4.4,2.5,10.2h2.5Z"/>
      <path class="st4" d="M10.7,20.5c.9.3,1.3,1.2,1.1,2-.3.8-1.2,1.1-2.1.8-.9-.3-1.3-1.2-1.1-2,.3-.8,1.2-1.1,2.1-.8Z"/>
      <path class="st4" d="M31.3,20.5c-.9.3-1.3,1.2-1.1,2,.3.8,1.2,1.1,2.1.8.9-.3,1.3-1.2,1.1-2-.3-.8-1.2-1.1-2.1-.8Z"/>
      <path class="st3" d="M22.1,34.9c-.1-1.8-.2-4.9.4-6.6.5-1.5,1.6-2.9,2.4-4.3.8-1.2,1.6-2.9.7-4.3-.9-1.4-3.1-1.9-4.7-1.9s-3.8.5-4.7,1.9c-.9,1.4,0,3.1.7,4.3.9,1.3,1.9,2.8,2.4,4.3.6,1.6.5,4.8.4,6.6h2.3Z"/>
      <path class="st1" d="M20.1,17.9c-1.4.2-3,.7-3.8,1.8-.9,1.4,0,3.1.7,4.3.9,1.3,1.9,2.8,2.4,4.3.6,1.6.5,4.8.4,6.6h.6c0-1.8,0-4.9-.2-6.5-.3-1.5-.8-3-1.2-4.3-.4-1.2-.8-3-.4-4.4.3-.9.8-1.5,1.4-1.7Z"/>
      <path class="st6" d="M10.6,20.9c.3,0,.5.2.5.5s-.2.5-.5.5-.5-.2-.5-.5.2-.5.5-.5Z"/>
      <path class="st6" d="M32.2,20.9c.3,0,.5.2.5.5s-.2.5-.5.5-.5-.2-.5-.5.2-.5.5-.5Z"/>
    </g>
  </g>
  <g class="st11">
    <g>
      <path class="st8" d="M13.7,6.1c-.6.2-5.1-2.5-3.6-5.4,0-.8-1.5-.5-1.8-.3-1.4,3.8,1.9,4.2,3.6,7.2,3,5.4,0,7.4-1.9,10.1-.8,0-1.6.5-2,1.6-1,.2-1.7.8-1.9,2-1.3.7-1.4,2.6-.3,3.5,0,1,.6,1.7,1.9,1.7.2.7.7,1.1,1.6.9.5.5,1.1.7,1.9.8.5,0,.7-1.1.6-1.5-.5-.5-1-.7-1.7-.7-.3-.6-.8-.8-1.3-.8-.1-.7-.5-.9-.9-1,.4-.5.6-1.1.3-1.7.5-.1,1.1-.4,1.4-1.2.9,0,1.6-.4,2-1.2,13.7,2.9,13.1-15,2.1-14h0Z"/>
      <path class="st10" d="M8,.9c0,.2,0,.4-.1.5.4-.2.9-.4,1.4-.5-.4-.2-.9-.1-1.3,0h0Z"/>
      <path class="st10" d="M8.2,3.3c.3-.3.6-.5,1-.7-.4,0-.8.2-1.1.4,0,.1,0,.2.1.4h0Z"/>
      <path class="st10" d="M9.4,4.8c0,0,.2.2.2.2.2-.2.5-.4.8-.6-.4,0-.7.2-1,.4Z"/>
      <path class="st2" d="M11.5,20c5.7,1.2,8.9-1.1,9.9-4.2-1.6,1.9-2.5,2.6-5.1,1.1.4.7.9,1.3,1.5,1.6-1.2,1.2-3,1.1-3.8-.5-.1.7.1,1.3.4,1.8-.8.3-1.9.3-3,.3Z"/>
      <path class="st2" d="M11.3,6.8c.2.2.3.5.5.8,3,5.4,0,7.4-1.9,10.1-.8,0-1.6.5-2,1.6-1,.2-1.7.8-1.9,2-1.3.7-1.4,2.6-.3,3.5,0,1,.6,1.7,1.9,1.7.2.7.7,1.1,1.6.9.5.5,1.1.7,1.9.8.2,0,.4-.2.5-.5-.7,0-1.3-.2-1.8-.7.2-.3.3-.5,0-.9,0,.3-.2.6-.5.7-.6.1-1,0-1.2-.6.3-.2.5-.5.4-.9-.2.4-.4.6-.7.6-.7-.1-1.3-.4-1.4-1.1.3,0,.7-.1,1-.5-.7.2-1.2.2-1.5-.1-.2-.9-.1-1.6.4-2.3.3.4.7.5,1.2.5-.4-.2-.7-.5-.7-.9.1-.8.5-1.3,1.2-1.5.2.7.7.9,1.2,1-.4-.4-.7-.8-.6-1.4.3-.7.8-1.1,1.6-1.1.2.5.6.8,1,1-.4-.7-.5-1.4-.3-1.8,3.8-3.8,3.7-7.4.1-11.1h0Z"/>
      <path class="st5" d="M15.9,7c3.8.6,5.4,4.6,4.4,7.5-.3.9-2.5,1.3-1.8-.4.9-2.3.3-5.4-2.5-7.1Z"/>
    </g>
  </g>
  <metadata>
    <sfw xmlns="http://ns.adobe.com/SaveForWeb/1.0/">
      <slices/>
      <sliceSourceBounds x="1.99" y="1.15" width="34" height="34.76" bottomLeftOrigin="true"/>
    </sfw>
  </metadata>
</svg>