<?xml version="1.0" encoding="UTF-8"?>
<svg id="Layer_1" xmlns="http://www.w3.org/2000/svg" xmlns:xlink="http://www.w3.org/1999/xlink" version="1.1" viewBox="0 0 36 36">
  <!-- Generator: Adobe Illustrator 29.2.1, SVG Export Plug-In . SVG Version: 2.1.0 Build 116)  -->
  <defs>
    <style>
      .st0 {
        fill: none;
      }

      .st1 {
        fill: #c62f18;
      }

      .st1, .st2, .st3, .st4, .st5, .st6, .st7 {
        fill-rule: evenodd;
      }

      .st2 {
        fill: #efe7c4;
      }

      .st3 {
        fill: #bc5849;
      }

      .st8 {
        fill: #a23e2f;
      }

      .st4 {
        fill: #d53119;
      }

      .st5 {
        fill: #e37f70;
      }

      .st6 {
        fill: #dfc29d;
      }

      .st7 {
        fill: #f3d6b1;
      }

      .st9 {
        fill: #9ed9dd;
      }

      .st10 {
        clip-path: url(#clippath);
      }
    </style>
    <clipPath id="clippath">
      <rect class="st0" x="11.4" y=".7" width="19.4" height="35.3"/>
    </clipPath>
  </defs>
  <path class="st9" d="M17.9,2h0c8.8,0,16,7.2,16,16h0c0,8.8-7.2,16-16,16h0c-8.8,0-16-7.2-16-16h0c0-8.9,7.2-16,16-16Z"/>
  <g class="st10">
    <g>
      <path class="st5" d="M21,.7c1,0,2,.8,2,2s-.8,2-2,2-2-.8-2-2,.8-2,2-2Z"/>
      <path class="st5" d="M15.6,3.4h10.9c2.4,0,4.3,2,4.3,4.3v18.6c0,2.4-2,4.3-4.3,4.3h-10.9c-2.4,0-4.3-2-4.3-4.3V7.7c0-2.4,2-4.3,4.3-4.3Z"/>
      <path class="st6" d="M15.6,4.8h10.9c1.6,0,2.9,1.3,2.9,2.9v18.6c0,1.6-1.3,2.9-2.9,2.9h-10.9c-1.6,0-2.9-1.3-2.9-2.9V7.7c0-1.6,1.3-2.9,2.9-2.9h0Z"/>
      <path class="st7" d="M17.7,4.8h8.7c1.6,0,2.9,1.3,2.9,2.9v18.6c0,.5-.1.9-.3,1.3h-9.7c-.9,0-1.6-.7-1.6-1.6V4.8Z"/>
      <path class="st1" d="M29.4,13.1v13.3c0,1.6-1.3,2.9-2.9,2.9h-10.9c-1.6,0-2.9-1.3-2.9-2.9v-13.3s16.7,0,16.7,0Z"/>
      <path class="st4" d="M29.4,13.1v13.3c0,.5-.1.9-.3,1.3h-9.7c-.9,0-1.6-.7-1.6-1.6v-13s11.6,0,11.6,0Z"/>
      <path class="st5" d="M17,29.7h3.3v3.5h-3.3v-3.5ZM21.8,29.7h3.2v5h-3.2v-5Z"/>
      <path class="st8" d="M24.2,28.6h-1.4v6.2h1.4v-6.2Z"/>
      <path class="st2" d="M21.7,36h3.5c.3,0,.6-.3.6-.6s-.3-.6-.6-.6h-3.5c-.3,0-.6.3-.6.6s.3.6.6.6Z"/>
      <path class="st3" d="M21,1.9c.4,0,.8.3.8.8s-.3.8-.8.8-.8-.3-.8-.8.3-.8.8-.8Z"/>
    </g>
  </g>
  <metadata>
    <sfw xmlns="http://ns.adobe.com/SaveForWeb/1.0/">
      <slices/>
      <sliceSourceBounds x="1.9" y="0" width="32" height="35.25" bottomLeftOrigin="true"/>
    </sfw>
  </metadata>
</svg>