<?xml version="1.0" encoding="UTF-8"?>
<svg id="Layer_1" xmlns="http://www.w3.org/2000/svg" xmlns:xlink="http://www.w3.org/1999/xlink" version="1.1" viewBox="0 0 36 36">
  <!-- Generator: Adobe Illustrator 29.2.1, SVG Export Plug-In . SVG Version: 2.1.0 Build 116)  -->
  <defs>
    <style>
      .st0 {
        fill: none;
      }

      .st1 {
        fill: #7dced2;
      }

      .st2 {
        fill: #b6320e;
      }

      .st2, .st3, .st4, .st5, .st6 {
        fill-rule: evenodd;
      }

      .st7, .st5 {
        fill: #991800;
      }

      .st8 {
        fill: #8c0a00;
      }

      .st3 {
        fill: #ffba00;
      }

      .st4 {
        fill: #a72606;
      }

      .st6 {
        fill: #e25452;
      }

      .st9 {
        clip-path: url(#clippath);
      }
    </style>
    <clipPath id="clippath">
      <rect class="st0" x="6.1" y="2.2" width="24" height="32"/>
    </clipPath>
  </defs>
  <path class="st1" d="M18.1,2.2h0c8.8,0,16,7.2,16,16h0c0,8.8-7.2,16-16,16h0c-8.8,0-16-7.2-16-16h0C2.1,9.4,9.3,2.2,18.1,2.2Z"/>
  <g class="st9">
    <g>
      <path class="st6" d="M20.7,15.5c6.2,5.6,6.3-1.5,6.3-5.6h2.3c0,8.9.2,9.8.2,18.7h-2.7c0-5,0,.4,0-4.6-.2-5.9-4.3-2.8-6.5-.7-.1-.3-.3-.4-.4-.7.4-.5,1.7-1.6,2.1-2.1,2.2-2.3-.6-2.8-2.3-4.9h1,0Z"/>
      <path class="st3" d="M20.9,10c1.5,1.6,2.3,3.2,4.4,3.4,1.3.1,2.6,0,2.6-1.1v-7.7h2.3v26.8h-2.5v-12.7c0-2.3-1.3-3.3-2.6-3.8-1.6-.6-2.4,1-3.7,2.3-.1-.3-.3-.6-.4-.8.4-.5.8-.9,1.2-1.4,1.4-1.4-1.3-3.6-2.3-4.9h1Z"/>
      <path class="st4" d="M11.8,3.5c-1.8,1.3-3.3,3.4-4,6.6-2,4.6-2.4,9.4-.3,14.6.8,3.2,2.6,5.9,5.9,7.8,5.5,3.3,10.4,1.3,9.2-4.6-.4-1.8-1-2.8-1-4.9s1-3.5,1-5.5-1.1-3.3-.9-5.5c.1-1.6.7-3.3.7-4.9,0-5-6.7-6.3-10.5-3.7h-.1Z"/>
      <path class="st7" d="M7.8,10.1c0,.3-.2.5-.3.8.9,0,1.9.2,2.9.7-.8-.8-1.6-1.3-2.6-1.6h0Z"/>
      <path class="st7" d="M7.8,26c.8-.6,1.5-1.3,1.9-2.1-.7.4-1.4.8-2.3.9,0,.4.2.8.4,1.3h0Z"/>
      <path class="st5" d="M11.9,31.6c.4.3.9.7,1.4,1,5.5,3.3,10.4,1.3,9.2-4.6-.4-1.8-1-2.8-1-4.9s1-3.5,1-5.5-1.1-3.3-.9-5.5c.1-1.6.7-3.3.7-4.9,0-3.2-2.7-4.9-5.6-5,3.7,1.7,4.7,3.6,3.7,7.2-.9,3.3-4.1,3.1-7.3,3.4,3.4.4,7.2.4,7.5,4.7.3,4-1.6,6.1-5.6,5.5,3.3,1.1,6.7,4.2,5.5,7.9-.3.9-1.2,1.4-2.5,1.6-2.1.3-4-.4-6-.8h0Z"/>
      <path class="st8" d="M21.5,22.8c-.6.4-1.3.7-2.2.7.9.2,1.7.5,2.3.8v-1.6h0Z"/>
      <path class="st8" d="M21.9,10.4c-.2,1.3-1.2,2-2.6,2.5.8,0,1.6,0,2.3.2v-1c0-.6.1-1.1.3-1.7h0Z"/>
      <path class="st2" d="M13,5.6c1.2-1.1,2.8-1.2,3.7-.2.8.9.5,2.6-.7,3.6-1.2,1.1-2.8,1.2-3.7.2-.8-.9-.5-2.6.7-3.6h0Z"/>
      <path class="st2" d="M14.3,29.8c1.3.9,2.8.9,3.4,0s0-2.3-1.2-3.2c-1.3-.9-2.8-.9-3.4,0-.6.9,0,2.3,1.2,3.2Z"/>
      <path class="st2" d="M11.9,21.5c-3.3-.3-2.8-7.5.6-7.2,3.8.5,3.2,7.7-.6,7.2Z"/>
    </g>
  </g>
  <metadata>
    <sfw xmlns="http://ns.adobe.com/SaveForWeb/1.0/">
      <slices/>
      <sliceSourceBounds x="2.06" y="1.83" width="32" height="32.11" bottomLeftOrigin="true"/>
    </sfw>
  </metadata>
</svg>